<svg width="18" height="18" viewBox="0 0 18 18" fill="none" xmlns="http://www.w3.org/2000/svg">
<path d="M10.1925 8.7825L17.2625 1.7125C17.6525 1.3225 17.6525 0.6925 17.2625 0.3025C16.8725 -0.0875 16.2425 -0.0875 15.8525 0.3025L8.7825 7.3725L1.7125 0.2925C1.3225 -0.0975 0.6825 -0.0975 0.2925 0.2925C-0.0975 0.6825 -0.0975 1.3225 0.2925 1.7125L7.3625 8.7825L0.2925 15.8525C-0.0975 16.2425 -0.0975 16.8725 0.2925 17.2625C0.4925 17.4625 0.7425 17.5525 1.0025 17.5525C1.2625 17.5525 1.5125 17.4525 1.7125 17.2625L8.7825 10.1925L15.8525 17.2625C16.0525 17.4625 16.3025 17.5525 16.5625 17.5525C16.8225 17.5525 17.0725 17.4525 17.2725 17.2625C17.6625 16.8725 17.6625 16.2425 17.2725 15.8525L10.2025 8.7825H10.1925Z" fill="#0054A2"/>
</svg>
