<svg width="14" height="15" viewBox="0 0 14 15" fill="none" xmlns="http://www.w3.org/2000/svg">
<g id="Vector">
<path d="M8.84719 7.68243L8.67145 12.0456C8.65806 12.3687 8.91079 12.6415 9.2338 12.6548C9.24217 12.6548 9.25053 12.6548 9.25723 12.6548C9.5702 12.6548 9.82961 12.4071 9.843 12.0925L10.0187 7.72929C10.0321 7.40627 9.78108 7.13348 9.45639 7.12009C9.13338 7.1067 8.86058 7.35774 8.84719 7.68243Z" fill="#888888"/>
<path d="M11.8929 4.77568H1.93304C1.77069 4.77568 1.61505 4.8443 1.50292 4.96313C1.39246 5.08196 1.33554 5.24263 1.34893 5.40498L1.90626 12.8594C1.90626 12.8594 1.90626 12.8661 1.90626 12.8694C1.95982 13.4536 2.2276 13.9925 2.6594 14.3874C3.09288 14.7824 3.65355 15 4.23933 15H9.58329C10.8034 15 11.8076 14.0912 11.9164 12.8845C11.9465 12.5632 11.7088 12.277 11.3858 12.2485C11.0628 12.2184 10.7783 12.4561 10.7498 12.7791C10.6946 13.3766 10.1942 13.8284 9.58329 13.8284H4.23933C3.63012 13.8284 3.1297 13.3732 3.0728 12.7674L2.56233 5.94891H11.2603L10.9557 10.0945C10.9323 10.4176 11.1749 10.6987 11.4963 10.7222C11.8193 10.7456 12.1005 10.5029 12.1239 10.1816L12.4753 5.40664C12.4871 5.2443 12.4318 5.08364 12.3197 4.96481C12.2093 4.84598 12.0536 4.77736 11.8912 4.77736L11.8929 4.77568Z" fill="#888888"/>
<path d="M9.69545 2.43182V1.75733C9.69545 0.788289 8.90716 0 7.93812 0H5.8879C4.91885 0 4.13056 0.788289 4.13056 1.75733V2.43182H0.585777C0.262763 2.43182 0 2.69458 0 3.01759C0 3.34061 0.262763 3.60337 0.585777 3.60337H13.2419C13.5649 3.60337 13.8277 3.34061 13.8277 3.01759C13.8277 2.69458 13.5649 2.43182 13.2419 2.43182H9.69545ZM8.52389 2.43182H5.30212V1.75733C5.30212 1.43432 5.56488 1.17155 5.8879 1.17155H7.93812C8.26113 1.17155 8.52389 1.43432 8.52389 1.75733V2.43182Z" fill="#888888"/>
<path d="M6.32778 7.70535V12.0686C6.32778 12.3916 6.59054 12.6543 6.91356 12.6543C7.23657 12.6543 7.49933 12.3916 7.49933 12.0686V7.70535C7.49933 7.38234 7.23657 7.11958 6.91356 7.11958C6.59054 7.11958 6.32778 7.38234 6.32778 7.70535Z" fill="#888888"/>
<path d="M4.37011 7.11997C4.0471 7.13336 3.79604 7.40616 3.80776 7.72917L3.98349 12.0924C3.99688 12.407 4.25629 12.6547 4.56926 12.6547C4.57763 12.6547 4.586 12.6547 4.5927 12.6547C4.91571 12.6413 5.16676 12.3685 5.15504 12.0455L4.97931 7.68231C4.96592 7.3593 4.69312 7.10825 4.37011 7.11997Z" fill="#888888"/>
</g>
</svg>
