<svg width="15" height="15" viewBox="0 0 15 15" fill="none" xmlns="http://www.w3.org/2000/svg">
<path d="M7.5 8.34961C7.82361 8.34961 8.08594 8.08729 8.08594 7.76367V0.585938C8.08594 0.262324 7.82361 0 7.5 0C7.17639 0 6.91406 0.262324 6.91406 0.585938V7.76367C6.91406 8.08729 7.17639 8.34961 7.5 8.34961Z" fill="#06B8FF"/>
<path d="M6.22477 10.7614C6.22576 10.7624 6.22673 10.7634 6.22772 10.7644C6.57053 11.1072 7.02076 11.2786 7.471 11.2786C7.92088 11.2786 8.3707 11.1074 8.71283 10.7653L11.9565 7.53428C12.1857 7.30591 12.1865 6.93492 11.9581 6.70564C11.7297 6.4764 11.3587 6.47564 11.1295 6.704L7.88502 9.9358C7.77434 10.0465 7.62721 10.1074 7.4707 10.1074C7.31476 10.1074 7.1681 10.0469 7.05756 9.937L3.87431 6.70778C3.64714 6.4773 3.27612 6.47467 3.04567 6.70184C2.81522 6.929 2.81256 7.29999 3.03973 7.53047L6.22477 10.7614Z" fill="#06B8FF"/>
<path d="M14.4141 12.0703C14.0904 12.0703 13.8281 12.3326 13.8281 12.6562C13.8281 13.3024 13.3024 13.8281 12.6562 13.8281H2.34375C1.69758 13.8281 1.17188 13.3024 1.17188 12.6562C1.17188 12.3326 0.909551 12.0703 0.585938 12.0703C0.262324 12.0703 0 12.3326 0 12.6562C0 13.9486 1.05141 15 2.34375 15H12.6562C13.9486 15 15 13.9486 15 12.6562C15 12.3326 14.7377 12.0703 14.4141 12.0703Z" fill="#06B8FF"/>
</svg>
