<svg width="111" height="79" viewBox="0 0 111 79" fill="none" xmlns="http://www.w3.org/2000/svg">
<path d="M103.687 0H6.22192C2.73909 0 0 2.91947 0 6.61747V71.4297C0 75.1277 2.75723 78.0472 6.22192 78.0472H103.868C107.351 78.0472 110.09 75.1277 110.09 71.4297V6.61747C109.909 2.91947 107.151 0 103.668 0H103.687ZM4.5712 8.17452L34.0664 38.1478L4.5712 69.4834V8.17452ZM62.2736 45.1545C58.2466 49.2417 51.6438 49.2417 47.6167 45.1545L7.8545 4.86579H102.018L62.2555 45.1545H62.2736ZM37.3497 41.4565L44.3153 48.6578C50.1744 54.6914 59.5164 54.6914 65.3755 48.6578L72.3412 41.4565L102.018 72.9868H7.87263L37.3678 41.4565H37.3497ZM75.824 38.1478L105.319 8.17452V69.4834L75.824 38.1478Z" fill="white"/>
</svg>
