<svg width="16" height="16" viewBox="0 0 16 16" fill="none" xmlns="http://www.w3.org/2000/svg">
<path d="M14.1246 0.879308C13.5576 0.312268 12.8037 0 12.0019 0C11.2 0 10.4461 0.312268 9.87912 0.879278L1.48942 9.26901C1.41803 9.34039 1.36631 9.42901 1.33923 9.52627L0.0214727 14.2606C-0.0353485 14.4648 0.022469 14.6838 0.172771 14.8333C0.284128 14.944 0.433346 15.0038 0.586139 15.0038C0.639532 15.0038 0.693393 14.9965 0.746229 14.9815L5.48056 13.6367C5.6803 13.58 5.83514 13.4218 5.88754 13.2208C5.93993 13.0199 5.88209 12.8062 5.73548 12.6591L2.75077 9.66538L9.70514 2.71098L12.2915 5.29733L6.96764 10.6067C6.73845 10.8352 6.73795 11.2063 6.96653 11.4355C7.19507 11.6647 7.56621 11.6652 7.79537 11.4367L14.1245 5.12472C14.6916 4.55771 15.0038 3.80386 15.0038 3.002C15.0038 2.20014 14.6916 1.44629 14.1246 0.879308ZM4.2021 12.7813L1.43084 13.5685L2.20696 10.7801L4.2021 12.7813ZM13.2963 4.29529L13.1215 4.46962L10.534 1.88213L10.708 1.70812C11.0536 1.36251 11.5131 1.17218 12.0019 1.17218C12.4906 1.17218 12.9501 1.36251 13.2957 1.70815C13.6413 2.05374 13.8317 2.51323 13.8317 3.002C13.8317 3.49077 13.6413 3.95026 13.2963 4.29529Z" fill="#888888"/>
</svg>
