<svg width="106" height="59" viewBox="0 0 106 59" fill="none" xmlns="http://www.w3.org/2000/svg">
<path d="M47.5 10.7V17.1C47.5 17.3 47.5 17.4 47.6 17.6C47.7 17.7 47.8 17.9 47.9 18C48 18.1 48.1 18.2 48.3 18.3C48.4 18.4 48.6 18.4 48.8 18.4C49 18.4 49.1 18.4 49.2 18.3C49.3 18.2 49.5 18.2 49.6 18C49.7 17.9 49.8 17.8 49.8 17.6C49.9 17.5 49.9 17.3 49.9 17.1V10.7H51C51.3 10.7 51.5 10.6 51.7 10.4C51.9 10.3 52 10 52 9.7C52 9.6 52 9.4 51.9 9.3C51.9 9.2 51.8 9.1 51.7 9C51.6 8.9 51.5 8.8 51.4 8.8C51.3 8.7 51.1 8.7 51 8.7H49.9V8C49.9 6.6 50.4 6 51.4 6H51.6C51.8 6 51.9 6 52.1 6C52.3 6 52.4 5.9 52.5 5.8C52.6 5.7 52.7 5.6 52.8 5.4C52.9 5.2 52.9 5.1 52.9 4.9C52.9 4.7 52.9 4.6 52.8 4.4C52.7 4.2 52.6 4.1 52.5 4C52.4 3.9 52.2 3.8 52.1 3.8C51.9 3.8 51.8 3.7 51.6 3.8H51.4C49 3.8 47.6 5.3 47.6 8.1V8.8H46.8C46.5 8.8 46.3 8.9 46.1 9.1C45.9 9.3 45.8 9.5 45.8 9.8C45.8 10.1 45.9 10.3 46.1 10.5C46.3 10.7 46.5 10.8 46.8 10.8H47.5V10.7Z" fill="white"/>
<path d="M57.4 18.4C57.9 18.4 58.5 18.3 59 18.1C59.5 17.9 59.9 17.6 60.3 17.2C60.3 17.5 60.4 17.8 60.7 18C60.9 18.2 61.2 18.3 61.5 18.3C61.7 18.3 61.8 18.3 62 18.2C62.1 18.1 62.3 18.1 62.4 17.9C62.5 17.8 62.6 17.7 62.7 17.5C62.8 17.4 62.8 17.2 62.8 17V9.80002C62.8 9.60002 62.8 9.50003 62.7 9.30002C62.6 9.20002 62.5 9.00002 62.4 8.90002C62.3 8.80002 62.2 8.70003 62 8.60003C61.9 8.50003 61.7 8.50002 61.5 8.50002C61.2 8.50002 60.9 8.60002 60.7 8.80002C60.5 9.00002 60.4 9.30003 60.3 9.60003C59.6 8.80003 58.3 8.40002 57.4 8.40002C54.7 8.40002 52.6 10.5 52.6 13.3C52.6 16.1 54.6 18.4 57.4 18.4ZM55 13.5V13.3C55 13 55.1 12.6 55.2 12.3C55.3 12 55.5 11.7 55.8 11.5C56 11.3 56.3 11.1 56.6 11C56.9 10.9 57.2 10.8 57.6 10.8H57.7C58.4 10.8 59 11.1 59.5 11.6C60 12.1 60.2 12.7 60.2 13.4C60.2 15.2 58.8 16.1 57.6 16.1H57.5C56.8 16.1 56.2 15.8 55.7 15.3C55.2 14.8 55 14.1 55 13.5Z" fill="white"/>
<path d="M77.3 17.1C77.3 17.4 77.4 17.7 77.6 17.9C77.8 18.1 78.1 18.2 78.4 18.3C78.7 18.3 79 18.2 79.2 18C79.4 17.8 79.6 17.5 79.6 17.2V12.9C79.6 10.2 78.3 8.70001 75.9 8.70001C75.3 8.70001 74.7 8.80001 74.2 9.10001C73.7 9.40001 73.2 9.80001 72.9 10.3C72.3 9.20001 71.4 8.70001 70 8.70001C69.3 8.70001 68 9.00001 67.3 9.90001C67.3 9.60001 67.1 9.30001 66.9 9.10001C66.7 8.90001 66.4 8.80001 66.1 8.80001C65.9 8.80001 65.8 8.80001 65.6 8.90001C65.5 9.00001 65.3 9.00001 65.2 9.20001C65.1 9.30001 65 9.40001 64.9 9.60001C65 9.50001 65 9.70001 65 9.80001V17.1C65 17.4 65.1 17.7 65.3 17.9C65.5 18.1 65.8 18.2 66.1 18.3C66.3 18.3 66.4 18.3 66.6 18.2C66.7 18.1 66.9 18.1 67 17.9C67.1 17.8 67.2 17.7 67.3 17.5C67.4 17.4 67.4 17.2 67.4 17V13C67.4 10.9 69 10.7 69.5 10.7C70.5 10.7 71.2 11.5 71.2 12.8V17C71.2 17.3 71.3 17.6 71.5 17.8C71.7 18 72 18.1 72.3 18.2C72.5 18.2 72.6 18.2 72.8 18.1C72.9 18 73.1 18 73.2 17.8C73.3 17.7 73.4 17.6 73.5 17.4C73.6 17.3 73.6 17.1 73.6 16.9V12.9C73.6 11.5 74.4 10.6 75.6 10.6C76.7 10.6 77.4 11.4 77.4 12.7V17.1H77.3Z" fill="white"/>
<path d="M84.3 9.79998C84.3 9.59998 84.3 9.49998 84.2 9.29998C84.1 9.19998 84 9.09998 83.9 8.99998C83.8 8.89998 83.7 8.79998 83.5 8.69998C83.4 8.59998 83.2 8.59998 83 8.59998C82.7 8.59998 82.4 8.69998 82.2 8.99998C82 9.19998 81.9 9.49998 81.9 9.79998V17.1C81.9 17.4 82 17.7 82.2 17.9C82.4 18.1 82.7 18.2 83 18.3C83.2 18.3 83.3 18.3 83.5 18.2C83.6 18.1 83.8 18.1 83.9 18C84 17.9 84.1 17.8 84.2 17.6C84.3 17.5 84.3 17.3 84.3 17.1V9.79998Z" fill="white"/>
<path d="M83.1 6.59999C83.5 6.59999 83.8 6.39999 84.1 6.19999C84.4 5.89999 84.5 5.59999 84.5 5.19999C84.5 4.79999 84.3 4.49999 84.1 4.19999C83.8 3.89999 83.5 3.79999 83.1 3.79999C82.9 3.79999 82.7 3.79999 82.5 3.89999C82.3 3.89999 82.2 3.99999 82 4.19999C81.9 4.29999 81.7 4.49999 81.7 4.69999C81.6 4.89999 81.6 5.09999 81.6 5.29999C81.6 5.69999 81.8 6.09999 82.1 6.29999C82.3 6.49999 82.7 6.59999 83.1 6.59999Z" fill="white"/>
<path d="M87.8 18.3C88 18.3 88.1 18.3 88.3 18.2C88.4 18.1 88.6 18.1 88.7 17.9C88.8 17.8 88.9 17.7 89 17.5C89.1 17.4 89.1 17.2 89.1 17V4.8C89.1 4.6 89.1 4.5 89 4.3C88.9 4.2 88.8 4 88.7 3.9C88.6 3.8 88.5 3.7 88.3 3.6C88.2 3.5 88 3.5 87.8 3.5C87.5 3.5 87.2 3.6 87 3.9C86.8 4.1 86.7 4.4 86.7 4.7V17C86.7 17.3 86.8 17.6 87 17.8C87.2 18.1 87.5 18.3 87.8 18.3Z" fill="white"/>
<path d="M93.7 17.6L92.3 21.2C92.2 21.3 92.2 21.5 92.2 21.7C92.2 21.9 92.2 22 92.3 22.1C92.4 22.2 92.5 22.4 92.6 22.5C92.7 22.6 92.9 22.7 93 22.7C93.1 22.7 93.2 22.7 93.3 22.7C93.5 22.7 93.8 22.6 94 22.5C94.2 22.4 94.3 22.2 94.4 22L99.3 10.2C99.3 10.1 99.3 10.1 99.3 10.1C99.4 9.79999 99.3 9.49999 99.2 9.19999C99.1 8.89999 98.8 8.69999 98.5 8.69999C98.2 8.59999 97.9 8.69999 97.6 8.79999C97.3 8.89999 97.1 9.19999 97 9.39999L94.8 14.7L92.6 9.39999C92.5 9.09999 92.3 8.89999 92 8.79999C91.7 8.69999 91.4 8.59999 91.1 8.69999H91C90.7 8.79999 90.5 8.99999 90.4 9.29999C90.3 9.59999 90.3 9.89999 90.4 10.2L93.7 17.6Z" fill="white"/>
<path d="M51.2 28.9C51.7 28.9 52.3 29 52.7 29.3C53.2 29.6 54 29.6 54.3 29C54.5 28.8 54.5 28.4 54.5 28.2C54.4 27.9 54.3 27.6 54 27.5C53.1 26.9 52.1 26.6 51.1 26.6C48.2 26.6 46.1 28.7 46.1 31.5C46.1 34.3 48.3 36.4 51.1 36.4C52.1 36.4 53.1 36.1 54 35.5C54.2 35.3 54.4 35.1 54.5 34.8C54.6 34.5 54.5 34.2 54.3 34C54 33.5 53.2 33.4 52.7 33.7C52.2 34 51.7 34.1 51.2 34.1C49.9 34.1 48.5 33.2 48.5 31.5V31.4C48.5 30.7 48.8 30.1 49.3 29.6C49.9 29.2 50.5 28.9 51.2 28.9Z" fill="white"/>
<path d="M60.6 26.7C57.8 26.7 55.7 28.7 55.7 31.6C55.7 34.5 57.7 36.5 60.6 36.5C62 36.5 63.3 36 64.3 35C64.4 34.9 64.5 34.8 64.5 34.6C64.5 34.5 64.6 34.3 64.6 34.2C64.6 34.1 64.6 33.9 64.5 33.8C64.4 33.7 64.4 33.6 64.3 33.5C64.1 33.3 63.8 33.3 63.5 33.3C63.2 33.3 63 33.4 62.8 33.6C62.1 34.1 61.6 34.4 60.7 34.4C59.4 34.4 58.4 33.6 58.1 32.4H64.2C64.5 32.4 64.8 32.3 65 32.1C65.2 31.9 65.3 31.6 65.3 31.3C65.2 28.6 63.2 26.7 60.6 26.7ZM60.5 28.7C61.1 28.7 61.6 28.9 62.1 29.2C62.5 29.6 62.8 30.1 62.9 30.6H58C58.3 29.5 59.3 28.8 60.5 28.7Z" fill="white"/>
<path d="M71.9 26.7C71.4 26.7 70.9 26.8 70.5 27C70 27.2 69.6 27.5 69.3 27.9C69.3 27.6 69.1 27.3 68.9 27.1C68.7 26.9 68.4 26.8 68.1 26.8C67.9 26.8 67.8 26.8 67.6 26.9C67.5 27 67.3 27 67.2 27.2C67.1 27.3 67 27.4 66.9 27.6C66.8 27.7 66.8 27.9 66.8 28.1V35.4C66.8 35.7 66.9 36 67.1 36.2C67.3 36.4 67.6 36.5 67.9 36.6C68.1 36.6 68.2 36.6 68.4 36.5C68.5 36.4 68.7 36.4 68.8 36.2C68.9 36.1 69 36 69.1 35.8C69.2 35.7 69.2 35.5 69.2 35.3V31.3C69.2 29.3 70.7 29 71.4 29C72.5 29 73.2 29.8 73.2 31.1V35.3C73.2 35.6 73.3 35.9 73.5 36.1C73.7 36.3 74 36.4 74.3 36.4C74.6 36.4 74.9 36.3 75.1 36.1C75.3 35.9 75.4 35.6 75.4 35.3V30.9C75.6 28.2 74.2 26.7 71.9 26.7Z" fill="white"/>
<path d="M81.9 26.8H80.9V24.4C80.9 24.2 80.9 24.1 80.8 23.9C80.7 23.8 80.6 23.6 80.5 23.5C80.4 23.4 80.3 23.3 80.1 23.2C80 23.1 79.8 23.1 79.6 23.1C79.4 23.1 79.3 23.1 79.2 23.2C79.1 23.3 78.9 23.3 78.8 23.5C78.7 23.6 78.6 23.7 78.6 23.9C78.5 24 78.5 24.2 78.5 24.3V26.7H77.8C77.7 26.7 77.5 26.7 77.4 26.8C77.3 26.9 77.2 26.9 77.1 27C77 27.1 76.9 27.2 76.9 27.3C76.9 27.4 76.8 27.6 76.8 27.7C76.8 28 76.9 28.2 77.1 28.4C77.3 28.6 77.5 28.7 77.8 28.7H78.5V35.1C78.5 35.4 78.6 35.7 78.8 35.9C79 36.1 79.3 36.2 79.6 36.3C79.8 36.3 79.9 36.3 80.1 36.2C80.2 36.1 80.4 36.1 80.5 35.9C80.6 35.8 80.7 35.7 80.8 35.5C80.9 35.4 80.9 35.2 80.9 35V28.6H81.9C82 28.6 82.2 28.6 82.3 28.5C82.4 28.5 82.5 28.4 82.6 28.3C82.7 28.2 82.8 28.1 82.8 28C82.9 27.9 82.9 27.8 82.9 27.6C82.9 27.5 82.9 27.3 82.8 27.2C82.8 27.1 82.7 27 82.6 26.9C82.5 26.8 82.4 26.7 82.3 26.7C82.2 26.9 82.1 26.8 81.9 26.8Z" fill="white"/>
<path d="M89.8 26.7C89.5 26.6 89.2 26.6 88.9 26.6C87.9 26.6 87.1 27.1 86.6 28.2V28C86.6 27.8 86.6 27.7 86.5 27.5C86.4 27.4 86.3 27.2 86.2 27.1C86.1 27 86 26.9 85.8 26.8C85.7 26.7 85.5 26.7 85.3 26.7C85 26.7 84.7 26.8 84.5 27.1C84.3 27.3 84.2 27.6 84.2 27.9V35.2C84.2 35.5 84.3 35.8 84.5 36C84.7 36.2 85 36.3 85.3 36.3C85.6 36.3 85.9 36.2 86.1 36C86.3 35.8 86.4 35.5 86.4 35.2V32.8C86.4 31.3 86.7 28.8 88.7 28.8H89C89.5 28.8 90.3 28.9 90.5 28C90.6 27.7 90.5 27.4 90.3 27.1C90.3 27 90.1 26.8 89.8 26.7Z" fill="white"/>
<path d="M99.9 26.7C99.6 26.7 99.3 26.8 99.1 27C98.9 27.2 98.8 27.5 98.7 27.8C98 27 96.7 26.6 95.8 26.6C93.1 26.6 91 28.7 91 31.5C91 34.3 93.1 36.4 95.8 36.4C96.3 36.4 96.9 36.3 97.4 36.1C97.9 35.9 98.3 35.6 98.7 35.2C98.7 35.5 98.8 35.8 99.1 36C99.3 36.2 99.6 36.3 99.9 36.3C100.1 36.3 100.2 36.3 100.4 36.2C100.5 36.1 100.7 36.1 100.8 35.9C100.9 35.8 101 35.7 101.1 35.5C101.2 35.4 101.2 35.2 101.2 35V27.7C101.2 27.5 101.2 27.4 101.1 27.2C101 27.1 100.9 26.9 100.8 26.8C100.7 26.7 100.6 26.6 100.4 26.5C100.2 26.8 100.1 26.7 99.9 26.7ZM98.7 31.6C98.7 33.4 97.3 34.3 96.1 34.3H96C95.3 34.3 94.7 34 94.2 33.5C93.7 33 93.5 32.3 93.5 31.7V31.5C93.5 31.2 93.6 30.8 93.7 30.5C93.8 30.2 94 29.9 94.3 29.7C94.5 29.5 94.8 29.3 95.1 29.2C95.4 29.1 95.7 29 96.1 29H96.2C96.9 29 97.5 29.3 98 29.8C98.5 30.2 98.7 30.9 98.7 31.6Z" fill="white"/>
<path d="M104.6 21.8C104.3 21.8 104 21.9 103.8 22.2C103.6 22.4 103.5 22.7 103.5 23V35.3C103.5 35.6 103.6 35.9 103.8 36.1C104 36.3 104.3 36.4 104.6 36.4C104.9 36.4 105.2 36.3 105.4 36.1C105.6 35.9 105.7 35.6 105.7 35.3V23C105.7 22.8 105.7 22.7 105.6 22.5C105.5 22.4 105.4 22.2 105.3 22.1C105.2 22 105.1 21.9 104.9 21.8C105 21.8 104.8 21.8 104.6 21.8Z" fill="white"/>
<path d="M38.2 23.3V5.7C38.2 4.6 37.7 3.5 36.9 2.7C36.1 1.9 35 1.5 33.9 1.5H4.5C3.4 1.5 2.3 1.9 1.5 2.7C0.699997 3.5 0.199997 4.6 0.199997 5.7V23.3C0.0999971 24.4 -0.300003 32.6 8 39.3C8.3 39.5 8.6 39.6 9 39.6C9.2 39.6 9.5 39.5 9.7 39.4C9.9 39.3 10.1 39.1 10.3 38.9C10.4 38.7 10.5 38.5 10.6 38.3C10.7 38.1 10.7 37.9 10.7 37.7C10.7 37.5 10.6 37.3 10.5 37.1C10.4 36.9 10.3 36.7 10.1 36.6C2.8 30.8 3.5 23.7 3.5 23.5V5.7C3.5 5.4 3.6 5.2 3.8 5C4 4.8 4.2 4.7 4.5 4.7H34C34.3 4.7 34.5 4.8 34.7 5C34.9 5.2 35 5.4 35 5.7V23.6C35 23.9 35.7 30.9 28.4 36.8C28.2 36.9 28.1 37.1 28 37.4C27.9 37.6 27.8 37.8 27.8 38.1C27.8 38.5 28 38.9 28.3 39.3C28.6 39.6 29 39.8 29.4 39.8C29.8 39.8 30.1 39.7 30.4 39.4C38.8 32.6 38.4 24.4 38.2 23.3Z" fill="white"/>
<path d="M19.2 32.3C18.9 32.3 18.7 32.2 18.5 32.1C18.3 32 18.1 31.8 17.9 31.6L17.8 31.5C17.6 31.2 17.4 31 17.1 30.7C16.2 29.8 14.6 28.5 13.2 27.5C12.5 27 11.8 26.4 11.3 26C7.6 23 6.9 19.9 7 17.8C7 15 8.5 12.8 9.7 11.9C11.6 10.5 13.5 9.90002 15.4 10.3C16.9 10.7 18.2 11.5 19.2 12.6C20.2 11.5 21.5 10.7 23 10.3C24.9 9.90002 26.8 10.4 28.7 11.8C30 12.7 31.3 15 31.4 17.7C31.5 19.8 30.8 22.9 27.1 25.9C26.6 26.3 25.9 26.8 25.2 27.4C23.8 28.5 22.2 29.7 21.3 30.7C21 30.9 20.8 31.2 20.6 31.5C20.6 31.5 20.6 31.6 20.5 31.6C20.4 31.8 20.2 32 19.9 32.1C19.7 32.2 19.5 32.3 19.2 32.3ZM14.2 13.4C13.4 13.4 12.5 13.7 11.6 14.4C11.2 14.7 10.2 16 10.2 17.8C10.1 19.8 11.2 21.7 13.3 23.5C13.8 23.9 14.4 24.4 15.1 24.9C16.5 25.9 17.9 27 19.2 28.2C20.5 27 21.9 25.9 23.3 24.9C24 24.4 24.7 23.9 25.1 23.5C27.2 21.8 28.3 19.8 28.2 17.8C28.1 16 27.2 14.7 26.8 14.4C25.7 13.5 24.6 13.2 23.6 13.4C21.9 13.8 20.8 15.7 20.5 16.1C20.4 16.3 20.2 16.6 19.9 16.7C19.7 16.8 19.4 16.9 19.1 16.9C18.8 16.9 18.5 16.8 18.3 16.7C18.1 16.6 17.9 16.4 17.7 16.1C17.5 15.7 16.4 13.8 14.6 13.4C14.6 13.4 14.4 13.4 14.2 13.4Z" fill="white"/>
<path d="M6.19999 47.1C6.09999 46.9 6.19999 46.5 6.49999 46.3C6.79999 46.1 7.09999 46.2 7.19999 46.4L8.89999 49.5L11.7 46.4C11.9 46.2 12.3 46.1 12.5 46.3C12.7 46.5 12.7 46.8 12.5 47.1L9.29999 50.7L8.59999 54C8.59999 54.3 8.29999 54.6 7.89999 54.6C7.59999 54.6 7.39999 54.3 7.39999 54L7.99999 50.7L6.19999 47.1Z" fill="white"/>
<path d="M11.4 51.7C11.7 49.9 13.2 48.8 14.8 48.8C16.4 48.8 17.5 49.9 17.2 51.7C16.9 53.5 15.4 54.6 13.8 54.6C12.2 54.6 11.1 53.5 11.4 51.7ZM16.1 51.7C16.3 50.6 15.6 49.9 14.6 49.9C13.6 49.9 12.6 50.6 12.4 51.7C12.2 52.8 12.9 53.6 13.9 53.6C14.9 53.6 15.9 52.8 16.1 51.7Z" fill="white"/>
<path d="M22.1 53.7C21.6 54.4 20.8 54.7 20.2 54.7C18.8 54.7 18.2 53.8 18.5 52.2L19 49.5C19.1 49.2 19.3 49 19.6 49C19.9 49 20.1 49.3 20 49.5L19.5 52.2C19.3 53.1 19.7 53.7 20.5 53.7C21.3 53.7 22.1 53.3 22.4 52.1L22.9 49.6C22.9 49.3 23.2 49.1 23.5 49.1C23.8 49.1 24 49.4 23.9 49.6L23.1 54C23.1 54.3 22.8 54.5 22.5 54.5C22.2 54.5 22 54.2 22 54L22.1 53.7Z" fill="white"/>
<path d="M28.2 49.9C27.1 49.9 26.5 51 26.2 52.5L25.9 54C25.8 54.3 25.6 54.5 25.2 54.5C24.9 54.5 24.7 54.2 24.8 54L25.6 49.4C25.6 49.1 25.9 48.9 26.2 48.9C26.5 48.9 26.7 49.2 26.7 49.4L26.6 50.2C27.1 49.2 27.7 48.8 28.4 48.8C28.8 48.8 29.4 48.9 29.3 49.5C29.2 49.8 28.9 49.9 28.5 49.9C28.4 49.9 28.2 49.9 28.2 49.9Z" fill="white"/>
<path d="M38.1 46.3C38.4 46.3 38.6 46.5 38.5 46.8C38.4 47.1 38.2 47.3 37.9 47.3H34.7L34.3 50H36.8C37.1 50 37.3 50.2 37.2 50.5C37.1 50.8 36.9 51 36.6 51H34.2L33.7 54C33.7 54.3 33.4 54.6 33 54.6C32.7 54.6 32.5 54.3 32.6 54L33.9 46.9C34 46.6 34.3 46.3 34.6 46.3H38.1Z" fill="white"/>
<path d="M42.4 53.6C41.9 54.2 41 54.6 40.3 54.6C38.8 54.6 37.7 53.5 38 51.7C38.3 49.9 39.8 48.8 41.3 48.8C42.1 48.8 42.8 49.1 43.1 49.8L43.2 49.5C43.2 49.2 43.5 49 43.8 49C44.1 49 44.3 49.3 44.3 49.5L43.4 54C43.3 54.3 43.1 54.5 42.8 54.5C42.5 54.5 42.3 54.2 42.4 54V53.6ZM41.2 49.9C40.2 49.9 39.3 50.6 39.1 51.7C38.9 52.8 39.6 53.6 40.6 53.6C41.6 53.6 42.6 52.9 42.8 51.7C42.9 50.5 42.1 49.9 41.2 49.9Z" fill="white"/>
<path d="M45.9 49.4C45.9 49.1 46.2 48.9 46.5 48.9C46.8 48.9 47 49.2 47 49.4V49.8C47.4 49.2 48.2 48.9 48.7 48.8C48.9 48.8 49.1 48.8 49.3 48.8C50 48.9 50.4 49.3 50.6 49.9C51.3 48.9 52.2 48.8 52.7 48.8C54.1 48.8 54.7 49.7 54.4 51.3L53.9 54C53.8 54.3 53.6 54.5 53.2 54.5C52.9 54.5 52.7 54.2 52.8 54L53.3 51.3C53.5 50.4 53.1 49.8 52.3 49.8C51.4 49.8 50.7 50.5 50.5 51.4L50 54C49.9 54.3 49.7 54.5 49.3 54.5C49 54.5 48.8 54.2 48.9 54L49.4 51.3C49.6 50.4 49.2 49.8 48.4 49.8C47.6 49.8 46.8 50.3 46.6 51.4L46.2 54C46.1 54.3 45.9 54.5 45.5 54.5C45.2 54.5 45 54.2 45.1 54L45.9 49.4Z" fill="white"/>
<path d="M56.6 54C56.5 54.3 56.3 54.5 55.9 54.5C55.6 54.5 55.4 54.2 55.5 54L56.3 49.4C56.3 49.1 56.6 48.9 56.9 48.9C57.2 48.9 57.4 49.2 57.4 49.4L56.6 54ZM56.6 46.9C56.5 47.3 56.8 47.5999 57.2 47.5999C57.6 47.5999 58 47.3 58.1 46.9C58.2 46.5 57.9 46.2 57.5 46.2C57.1 46.2 56.7 46.5 56.6 46.9Z" fill="white"/>
<path d="M59.4 54C59.3 54.3 59.1 54.5 58.7 54.5C58.4 54.5 58.2 54.2 58.3 54L59.6 46.4C59.6 46.1 59.9 45.9 60.2 45.9C60.5 45.9 60.7 46.1 60.6 46.4L59.4 54Z" fill="white"/>
<path d="M63.4 53L65.6 49.2C65.8 48.9 66.1 48.8 66.4 48.9C66.7 49 66.7 49.3 66.6 49.6L62.3 56.9C62.1 57.2 61.8 57.3 61.5 57.2C61.2 57.1 61.2 56.8 61.4 56.5L62.7 54.3L61.6 49.6C61.5 49.3 61.6 49 62 48.9C62.3 48.8 62.6 48.9 62.6 49.2L63.4 53Z" fill="white"/>
<path d="M75.1 46.2C77.4 46.2 78.9 48.1 78.5 50.4C78.1 52.7 75.9 54.5999 73.6 54.5999C71.3 54.5999 69.8 52.7 70.2 50.4C70.6 48.1 72.7 46.2 75.1 46.2ZM73.8 53.5999C75.5 53.5999 77.1 52.2 77.4 50.5C77.7 48.8 76.6 47.4 74.9 47.4C73.2 47.4 71.6 48.8 71.3 50.5C71 52.2 72.1 53.5999 73.8 53.5999Z" fill="white"/>
<path d="M85.3 49.9L84.6 54C84.6 54.3 84.3 54.5 84 54.5C83.7 54.5 83.5 54.2 83.6 54L84.3 49.8H81.7L80.8 54C80.8 54.3 80.5 54.5 80.2 54.5C79.9 54.5 79.7 54.2 79.8 54L80.5 49.8H79.8C79.6 49.8 79.4 49.6 79.4 49.3C79.4 49.1 79.7 48.8 79.9 48.8H80.6L80.7 48.2C81 46.7 81.8 45.7 83.3 45.7H83.7C84 45.7 84.2 45.9 84.1 46.2C84.1 46.5 83.8 46.7 83.5 46.7H83.1C82.2 46.7 81.9 47.4 81.8 48.1L81.7 48.7H84.3L84.4 48.1C84.7 46.6 85.5 45.6 87 45.6H87.2C87.5 45.6 87.7 45.8 87.6 46.1C87.6 46.4 87.3 46.6 87 46.6H86.8C85.9 46.6 85.6 47.3 85.5 48L85.4 48.6H88.6C88.9 48.6 89.1 48.8 89.1 49.1L88.3 54C88.3 54.3 88 54.5 87.7 54.5C87.4 54.5 87.2 54.2 87.3 54L88 49.8H85.3V49.9ZM89.2 46.2C89.6 46.2 89.9 46.5 89.8 46.9C89.7 47.3 89.3 47.6 88.9 47.6C88.5 47.6 88.2 47.3 88.3 46.9C88.4 46.5 88.8 46.2 89.2 46.2Z" fill="white"/>
<path d="M92.7 53.6C93.1 53.6 93.5 53.5 93.8 53.3C94.1 53.1 94.4 53.1 94.6 53.3C94.8 53.5 94.7 53.9 94.4 54.1C93.8 54.5 93.2 54.7 92.5 54.7C90.9 54.7 89.7 53.5 90.1 51.8C90.4 50.1 92 48.9 93.6 48.9C94.3 48.9 94.8 49.1 95.3 49.5C95.5 49.7 95.5 50 95.2 50.3C95 50.5 94.6 50.5 94.4 50.3C94.1 50.1 93.8 50 93.4 50C92.4 50 91.4 50.8 91.2 51.9C91 52.8 91.7 53.6 92.7 53.6Z" fill="white"/>
<path d="M101.1 52.1H97C97 53 97.6 53.6 98.5 53.6C99.2 53.6 99.6 53.4 100 53C100.3 52.8 100.6 52.7 100.8 52.9C101 53.1 101 53.4 100.8 53.6C100.1 54.3 99.3 54.6 98.3 54.6C96.7 54.6 95.7 53.4 96 51.7C96.3 49.9 97.8 48.8 99.4 48.8C101 48.8 102 49.9 101.7 51.7C101.5 52 101.3 52.1 101.1 52.1ZM100.6 51.3C100.6 50.4 100.1 49.8 99.2 49.8C98.3 49.8 97.4 50.4 97.2 51.3H100.6Z" fill="white"/>
</svg>
