<svg width="778" height="725" viewBox="0 0 778 725" fill="none" xmlns="http://www.w3.org/2000/svg">
<g clip-path="url(#clip0_162_49)">
<path d="M220.098 261.136C232.846 288.935 240.006 315.238 230.619 326.967C230.065 327.663 229.457 328.298 228.801 328.878C221.573 335.241 207.349 335.384 183.342 325.909C119.45 300.691 116.416 257.163 103.49 214.66C90.7486 172.689 46.2522 179.782 45.1181 179.973C148.806 143.88 198.461 214.011 220.091 261.136H220.098Z" fill="url(#paint0_linear_162_49)"/>
<path d="M230.626 326.967C230.072 327.663 229.464 328.298 228.808 328.878C216.805 321.656 193.822 306.336 182.993 289.14C177.883 281.023 173.586 271.902 169.029 262.249C160.434 243.988 151.525 225.112 135.983 210.625L137.718 208.762C153.616 223.589 162.614 242.691 171.324 261.171C175.84 270.755 180.103 279.808 185.145 287.788C195.708 304.561 218.929 319.942 230.632 326.974L230.626 326.967Z" fill="url(#paint1_linear_162_49)"/>
<path d="M208.996 272.489C208.244 274.339 207.759 275.384 207.704 275.5C207.506 274.483 207.315 273.466 207.124 272.489C198.597 228.853 187.202 224.293 153.028 186.117C118.076 147.075 138.176 110.696 138.176 110.696C255.268 144.502 216.955 252.979 208.996 272.489Z" fill="url(#paint2_linear_162_49)"/>
<path d="M208.996 272.489C208.244 274.34 207.759 275.384 207.704 275.5C207.506 274.483 207.315 273.466 207.124 272.489C210.915 234.765 188.145 190.493 180.985 182.554C173.579 174.328 169.015 163.016 167.294 158.749C167.007 158.046 166.733 157.37 166.645 157.213L168.298 156.278C168.441 156.537 168.633 157.001 169.056 158.039C170.737 162.217 175.219 173.304 182.406 181.271C191.479 191.347 212.494 235.83 209.009 272.489H208.996Z" fill="url(#paint3_linear_162_49)"/>
<g style="mix-blend-mode:hard-light">
<path d="M223.65 46.4355H723.092C741.763 46.4355 756.917 61.5841 756.917 80.2347V223.023C756.917 241.68 741.757 256.829 723.085 256.829H223.65C204.978 256.829 189.825 241.68 189.825 223.03V80.2347C189.825 61.5773 204.985 46.4355 223.65 46.4355Z" fill="#F4F4F4"/>
</g>
<path d="M432.147 502.776H219.524V509.883H432.147V502.776Z" fill="white"/>
<path d="M377.43 469.605H219.524V476.711H377.43V469.605Z" fill="url(#paint4_linear_162_49)"/>
<path d="M390.144 486.187H219.524V493.294H390.144V486.187Z" fill="url(#paint5_linear_162_49)"/>
<path d="M330.228 502.776H219.524V509.883H330.228V502.776Z" fill="url(#paint6_linear_162_49)"/>
<g style="mix-blend-mode:hard-light">
<path d="M114.524 268.229H420.704C434.559 268.229 445.804 279.466 445.804 293.311V569.234C445.804 583.072 434.559 594.309 420.71 594.309H114.524C100.669 594.309 89.4232 583.072 89.4232 569.227V293.304C89.4232 279.466 100.669 268.229 114.517 268.229H114.524Z" fill="#F4F4F4"/>
</g>
<path d="M221.505 366.999C228.726 346.826 222.209 325.076 206.789 311.969C203.113 308.842 198.932 306.207 194.307 304.2C193.289 303.756 192.244 303.346 191.185 302.971C180.513 299.155 169.405 299.175 159.362 302.315C144.871 306.848 132.608 317.88 127.101 333.268C125.284 338.347 124.341 343.522 124.184 348.642C123.549 369.764 136.441 389.8 157.421 397.303C183.492 406.614 212.179 393.057 221.505 367.006V366.999ZM161.644 385.493C145.91 379.874 136.242 364.842 136.721 349.01C136.837 345.174 137.547 341.296 138.914 337.487C143.04 325.95 152.236 317.682 163.099 314.283C170.628 311.934 178.956 311.914 186.956 314.774C187.748 315.061 188.534 315.368 189.299 315.703C192.77 317.205 195.899 319.184 198.659 321.526C210.219 331.35 215.103 347.659 209.693 362.787C202.703 382.318 181.19 392.483 161.644 385.499V385.493Z" fill="#90C1FC"/>
<path d="M163.099 314.283L159.355 302.315C144.864 306.848 132.601 317.88 127.094 333.268C125.277 338.347 124.334 343.522 124.177 348.642L136.721 349.017C136.837 345.181 137.547 341.303 138.914 337.494C143.04 325.956 152.236 317.689 163.099 314.29V314.283Z" fill="#4372BD"/>
<path d="M189.292 315.696L194.3 304.2C193.282 303.756 192.237 303.346 191.178 302.971C180.506 299.155 169.398 299.175 159.355 302.315L163.099 314.283C170.628 311.934 178.956 311.914 186.956 314.774C187.748 315.061 188.534 315.368 189.299 315.703L189.292 315.696Z" fill="#4E85DE"/>
<path d="M206.782 311.968C203.107 308.842 198.925 306.207 194.3 304.2L189.292 315.696C192.763 317.198 195.892 319.177 198.652 321.519L206.782 311.968Z" fill="#72ACFB"/>
<path d="M381.051 468.69H363.657V528.233H381.051V468.69Z" fill="#72ACFB"/>
<path d="M355.185 485.395H337.791V528.233H355.185V485.395Z" fill="#72ACFB"/>
<path d="M406.138 441.096H388.744V528.233H406.138V441.096Z" fill="#72ACFB"/>
<path d="M403.337 397.562L403.029 395.685L357.119 403.194L342.239 434.891L292.735 438.25L276.7 461.884L238.858 460.948L238.81 462.853L277.698 463.816L293.794 440.086L343.482 436.72L358.417 404.915L403.337 397.562Z" fill="#72ACFB"/>
<path d="M347.233 318.215H396.71C399.832 318.215 402.367 315.682 402.367 312.562C402.367 309.436 399.832 306.91 396.71 306.91H347.233C344.111 306.91 341.576 309.436 341.576 312.562C341.576 315.682 344.104 318.215 347.233 318.215Z" fill="#4E85DE"/>
<path d="M347.233 337.937H396.71C399.832 337.937 402.367 335.405 402.367 332.285C402.367 329.165 399.832 326.632 396.71 326.632H347.233C344.111 326.632 341.576 329.165 341.576 332.285C341.576 335.405 344.104 337.937 347.233 337.937Z" fill="#72ACFB"/>
<path d="M347.233 357.653H396.71C399.832 357.653 402.367 355.12 402.367 352C402.367 348.881 399.832 346.348 396.71 346.348H347.233C344.111 346.348 341.576 348.881 341.576 352C341.576 355.12 344.104 357.653 347.233 357.653Z" fill="#72ACFB"/>
<path d="M257.673 327.991H229.375V326.905H257.229L272.123 312.016H290.371V313.102H272.574L257.673 327.991Z" fill="#72ACFB"/>
<path d="M284.495 377.382H248.074L236.282 365.592L237.048 364.821L248.525 376.297H284.495V377.382Z" fill="#72ACFB"/>
<path d="M312.561 319.205H274.814V323.833H312.561V319.205Z" fill="#4E85DE"/>
<path d="M293.691 366.391H263.303V371.02H293.691V366.391Z" fill="#4E85DE"/>
<path d="M9.63303 388.571C19.1431 384.025 28.6053 414.274 28.6053 414.274C44.7697 435.621 67.356 407.222 65.1425 439.13C61.2756 494.952 129.445 456.682 97.9972 514.968C66.5499 573.248 125.769 547.921 106.223 594.916C86.6767 641.912 112.01 697.959 82.6049 674.926C82.6049 674.926 56.7119 618.189 30.0127 600.637C3.30666 583.079 46.0062 562.25 37.6576 538.405C25.5241 503.773 -3.71657 505.131 17.3668 467.919C38.4501 430.706 -22.6888 404.02 9.63986 388.571H9.63303Z" fill="url(#paint7_linear_162_49)"/>
<path d="M91.9237 653.572C79.1753 644.615 64.2543 582.191 63.373 545.006C62.9153 525.96 57.2789 518.027 52.3121 511.029C47.5639 504.339 43.4579 498.557 45.8491 485.286C50.4197 459.924 38.4091 448.974 38.2862 448.872L39.673 447.288C40.2059 447.752 52.7152 459.051 47.926 485.654C45.692 498.059 49.3744 503.24 54.0338 509.807C58.9254 516.696 65.0127 525.27 65.4841 544.958C66.4405 584.861 81.6894 643.796 93.1466 651.845L91.9373 653.572H91.9237Z" fill="white"/>
<path d="M96.6923 658.193C95.0458 658.193 93.2627 658.002 91.3019 657.606C86.3898 656.61 83.1651 654.029 81.7236 649.906C78.2871 640.089 86.2532 624.135 92.7162 616.448C92.8255 616.318 103.64 603.109 102.486 584.799C102.295 581.734 101.973 578.887 101.693 576.389C100.88 569.145 100.293 563.909 103.408 560.414C106.155 557.335 111.449 555.997 121.123 555.949C138.087 555.874 144.796 548.856 150.186 543.217C152.475 540.821 154.634 538.562 157.264 537.128C165.722 532.513 174.672 531.837 178.559 535.517C180.404 537.265 181.962 540.685 178.901 547.061C176.107 552.898 172.486 556.591 169.575 559.554C165.661 563.548 163.071 566.183 164.417 571.439C164.732 572.675 165.1 573.917 165.463 575.174C168.079 584.11 171.044 594.241 155.734 601.115C152.489 602.576 149.53 603.737 146.914 604.761C136.229 608.952 129.779 611.485 122.497 626.838C121.089 629.815 119.839 632.627 118.637 635.351C112.898 648.356 108.553 658.187 96.6855 658.187L96.6923 658.193ZM158.269 538.971C155.932 540.248 153.971 542.296 151.703 544.672C146.039 550.597 138.989 557.977 121.13 558.059C112.235 558.1 107.255 559.26 104.979 561.814C102.493 564.606 103.032 569.453 103.784 576.15C104.071 578.682 104.385 581.55 104.583 584.669C105.792 603.846 94.7931 617.24 94.3285 617.8C87.9338 625.411 80.6851 640.56 83.7117 649.209C84.8936 652.575 87.5785 654.705 91.7119 655.538C106.134 658.453 110.11 649.435 116.703 634.498C117.912 631.76 119.163 628.927 120.584 625.93C128.222 609.819 135.347 607.02 146.142 602.788C148.731 601.77 151.669 600.624 154.866 599.183C168.503 593.06 166.043 584.649 163.44 575.754C163.065 574.484 162.696 573.214 162.375 571.958C160.735 565.548 163.966 562.25 168.066 558.072C171.01 555.069 174.351 551.662 176.995 546.146C178.382 543.252 179.523 539.326 177.097 537.032C173.914 534.015 165.818 534.848 158.269 538.964V538.971Z" fill="url(#paint8_linear_162_49)"/>
<path d="M91.5342 670.359L89.43 670.25C89.5325 668.27 92.1901 621.691 110.91 608.051C131.446 593.094 137.923 577.017 141.004 566.23C144.639 553.519 163.133 550.119 163.919 549.983L164.287 552.058C164.11 552.092 146.306 555.369 143.033 566.811C139.863 577.897 133.216 594.418 112.153 609.758C94.2328 622.811 91.5616 669.895 91.5411 670.366L91.5342 670.359Z" fill="url(#paint9_linear_162_49)"/>
<path d="M134.329 435.58C121.028 431.027 123.788 456.648 118.165 475.612C112.542 494.57 55.6188 483.879 79.5169 531.353C103.408 578.833 49.2992 547.232 65.4636 588.663C81.6279 630.088 66.871 674.4 84.4359 663.129C102.001 651.858 94.308 599.688 112.577 593.49C130.845 587.291 133.831 580.061 115.733 563.206C97.642 546.358 163.14 529.625 146.975 495.594C130.811 461.563 149.694 440.85 134.323 435.58H134.329Z" fill="url(#paint10_linear_162_49)"/>
<path d="M92.5864 661.136C90.9125 654.05 76.627 591.633 89.9561 584.082C101.707 577.433 101.42 551.573 99.5822 527.147C97.9631 505.527 125.749 495.424 126.93 495.007L127.634 496.994C127.361 497.089 100.183 506.981 101.686 526.997C103.572 552.079 103.77 578.689 90.9945 585.926C80.8696 591.66 90.1952 641.816 94.6359 660.658L92.5864 661.136Z" fill="white"/>
<path d="M122.831 638.915L103.839 710.93H61.3849L42.3921 638.915H122.831Z" fill="url(#paint11_linear_162_49)"/>
<path d="M122.831 638.915C122.831 638.915 81.0131 646.759 81.0131 710.923H61.3849L42.3921 638.915H122.831Z" fill="url(#paint12_linear_162_49)"/>
<path d="M237.683 17.7974V23.9005H178.109V83.4365H171.994V17.7974H237.683Z" fill="#BFD4FC"/>
<path d="M776.934 0H728.441V3.39289H776.934V0Z" fill="#BFD4FC"/>
<path d="M776.934 6.40344H728.441V20.6918H776.934V6.40344Z" fill="#BFD4FC"/>
<path d="M723.795 11.8307H695.183V13.9675H723.795V11.8307Z" fill="#BFD4FC"/>
<path d="M723.795 14.9028H695.183V20.6851H723.795V14.9028Z" fill="#BFD4FC"/>
<path d="M778 0H775.868V40.0115H778V0Z" fill="#BFD4FC"/>
<path d="M241.632 545.368H181.784V548.918H241.632V545.368Z" fill="#DCD0C8"/>
<path d="M189.812 719.6H195.052L195.052 558.161H189.812L189.812 719.6Z" fill="#6D6865"/>
<path d="M273.865 544.358H232.265V549.43H273.865V544.358Z" fill="#C6BBB5"/>
<path d="M260.946 501.103H245.191V548.911H260.946V501.103Z" fill="#948C87"/>
<path d="M390.8 548.979H160.318V558.154H390.8V548.979Z" fill="#A98E75"/>
<path d="M116.081 493.416C116.081 493.416 113.56 528.738 120.467 532.971C124.792 535.619 142.05 544.549 141.537 546.228C141.025 547.901 131.795 561.131 131.795 561.131C131.795 561.131 98.6531 539.319 97.5873 532.452C96.542 525.741 99.2202 480.732 103.777 478.657C107.186 477.107 108.99 478.391 113.287 481.579C119.32 486.057 116.081 493.416 116.081 493.416Z" fill="#EBB35C"/>
<path d="M156.854 697.55C156.854 697.55 155.823 704.697 155.693 705.769C155.563 706.841 144.229 705.134 144.229 705.134L143.313 696.621C143.313 696.621 155.44 696.539 156.854 697.543V697.55Z" fill="#454971"/>
<path d="M155.816 704.861C155.816 704.861 159.409 709.169 162.88 711.046C166.351 712.924 171.809 713.668 173.866 715.613C175.348 717.013 179.263 723.054 164.841 722.932C150.419 722.809 143.457 723.785 141.913 721.471C140.369 719.149 144.147 704.383 144.147 704.383C144.147 704.383 147.563 705.612 155.809 704.868L155.816 704.861Z" fill="#2E3048"/>
<path d="M229.478 697.618C229.478 697.618 228.446 704.766 228.316 705.837C228.187 706.909 216.852 705.202 216.852 705.202L215.937 696.689C215.937 696.689 228.064 696.601 229.478 697.611V697.618Z" fill="#454971"/>
<path d="M228.432 704.929C228.432 704.929 232.026 709.237 235.497 711.108C238.967 712.985 251.75 714.528 253.806 716.473C255.289 717.873 257.755 723.525 237.457 722.993C223.035 722.618 216.074 723.846 214.53 721.532C212.985 719.218 216.764 704.445 216.764 704.445C216.764 704.445 219.981 705.755 228.426 704.929H228.432Z" fill="#2E3048"/>
<path d="M120.297 574.088C120.297 574.088 161.507 581.051 170.812 582.512C180.117 583.973 230.585 596.521 236.897 600.344C241.919 603.388 234.26 676.489 232.47 704.376H212.596L211.155 620.721C187.304 621.315 170.279 615.144 152.912 617.786C135.546 620.421 121.062 624.169 110.021 609.375C110.021 609.375 109.612 577.331 120.297 574.095V574.088Z" fill="#2E3048"/>
<path d="M160.913 704.452L141.544 703.25L139.652 620.722C129.383 620.974 125.865 620.326 117.557 619.322L101.912 582.997C115.617 585.734 159.532 596.807 165.387 600.351C170.416 603.395 162.696 676.557 160.906 704.452H160.913Z" fill="#2E3048"/>
<path d="M139.269 419.742C139.269 419.742 154.374 415.571 160.14 427.293C165.907 439.007 163.29 461.222 155.679 463.31C148.062 465.399 137.117 462.996 133.954 455.699C130.797 448.408 128.276 438.045 129.028 431.334C129.786 424.623 135.259 421.347 139.269 419.742Z" fill="#DBA585"/>
<path d="M151.724 460.969C151.724 460.969 151.56 469.878 152.543 471.782C153.527 473.68 131.508 473.202 131.508 473.202C131.508 473.202 134.978 462.498 133.011 453.384C131.064 444.359 151.724 460.969 151.724 460.969Z" fill="#DBA585"/>
<path d="M131.822 450.012C131.822 450.012 133.004 452.408 138.702 452.019C144.4 451.637 151.922 444.762 154.34 444.148C156.759 443.533 156.902 442.161 156.902 442.161L158.18 444.435L160.66 444.817C160.66 444.817 158.979 437.929 162.648 435.505C166.317 433.082 160.994 413.55 142.412 418.261C142.412 418.261 128.229 420.855 128.037 428.767C127.846 436.679 129.076 445.82 131.822 450.012Z" fill="#3E4148"/>
<path d="M153.698 471.557C153.698 471.557 153.636 467.925 151.99 467.577C150.344 467.236 134.685 465.079 132.662 465.87L131.795 470.663C131.795 470.663 135.689 473.059 153.698 471.557Z" fill="#DCD0C8"/>
<path d="M158.234 440.536C157.811 437.56 154.429 434.14 152.489 438.775C150.548 443.411 153.8 450.155 155.973 449.794C158.146 449.432 158.808 444.571 158.234 440.53V440.536Z" fill="#DBA585"/>
<path d="M219.298 514.443C219.298 514.443 219.285 514.443 219.271 514.443C219.387 514.491 219.401 514.497 219.298 514.443Z" fill="#363957"/>
<path d="M134.856 421.865C134.856 421.865 116.437 420.998 131.638 449.725L134.856 421.865Z" fill="#3E4148"/>
<path d="M93.8161 714.234L95.1893 718.091L153.083 700.164L150.309 692.368L93.8161 714.234Z" fill="#8C8581"/>
<path d="M155.064 634.525H148.485V697.42H155.064V634.525Z" fill="#8C8581"/>
<path d="M171.188 631.187H132.376V634.894H171.188V631.187Z" fill="#5D5955"/>
<path d="M210.246 714.234L208.88 718.091L150.986 700.164L153.527 691.877L210.246 714.234Z" fill="#8C8581"/>
<path d="M169.459 717.675V722.153L150.986 700.164L153.527 691.877L169.459 717.675Z" fill="#8C8581"/>
<path d="M215.657 719.593C215.657 722.576 213.238 725 210.246 725C207.253 725 204.835 722.576 204.835 719.593C204.835 716.61 207.26 714.186 210.246 714.186C213.231 714.186 215.657 716.603 215.657 719.593Z" fill="#B9AFAA"/>
<path d="M169.917 719.593C169.917 722.576 167.492 725 164.506 725C161.521 725 159.095 722.576 159.095 719.593C159.095 716.61 161.514 714.186 164.506 714.186C167.498 714.186 169.917 716.603 169.917 719.593Z" fill="#B9AFAA"/>
<path d="M99.227 719.593C99.227 722.576 96.8085 725 93.8161 725C90.8237 725 88.4052 722.576 88.4052 719.593C88.4052 716.61 90.8237 714.186 93.8161 714.186C96.8085 714.186 99.227 716.603 99.227 719.593Z" fill="#B9AFAA"/>
<path d="M190.98 631.187H113.082C109.202 631.187 106.059 628.047 106.059 624.169C106.059 620.291 109.202 617.151 113.082 617.151H190.98C194.86 617.151 198.003 620.291 198.003 624.169C198.003 628.047 194.86 631.187 190.98 631.187Z" fill="#DCD0C8"/>
<path d="M361.307 558.154H356.067V719.593H361.307V558.154Z" fill="#6D6865"/>
<path d="M193.05 428.255H313.073C317.487 428.255 321.073 431.839 321.073 436.249V516.149C321.073 520.56 317.494 524.144 313.073 524.144H193.043C188.63 524.144 185.043 520.56 185.043 516.149V436.249C185.043 431.839 188.63 428.255 193.043 428.255H193.05Z" fill="#B2A8A3"/>
<path d="M315.745 433.437H190.379V509.111H315.745V433.437Z" fill="#F4F6FF"/>
<path d="M310.177 516.252C310.177 518.402 307.915 520.143 305.128 520.143C302.34 520.143 300.072 518.402 300.072 516.252C300.072 514.101 302.334 512.354 305.128 512.354C307.922 512.354 310.177 514.095 310.177 516.252Z" fill="#8C8480"/>
<path d="M281.223 549.102V547.396C281.223 547.396 278.825 536.78 261.841 536.78C244.856 536.78 245.205 549.102 245.205 549.102H281.223Z" fill="#948C87"/>
<path d="M245 538.357C245 538.357 248.689 538.07 250.042 537.251C251.395 536.432 259.477 531.004 261.376 531.871C263.275 532.745 275.914 536.616 275.477 538.459C275.04 540.309 273.872 540.125 272.977 539.804C272.089 539.476 262.906 537.551 262.1 537.879C262.1 537.879 271.118 541.169 271.153 543.566C271.187 545.969 269.267 546.549 268.413 547.457C267.559 548.365 266.534 550.618 264.211 550.788C261.888 550.966 250.547 547.02 248.218 546.843C245.888 546.658 241.563 546.986 241.27 546.604C240.976 546.228 245.007 538.364 245.007 538.364L245 538.357Z" fill="#DBA585"/>
<path d="M177.842 476.582C166.077 474.513 153.698 471.55 153.698 471.55L131.795 470.656C131.795 470.656 111.688 475.08 103.777 478.65C103.026 478.992 103.019 496.57 100.962 501.185L107.528 515.023C107.528 515.023 111.32 542.432 112.105 554.625C112.467 560.223 111.087 608.713 111.087 608.713C111.087 608.713 113.055 609.683 128.003 611.328C142.951 612.98 180.308 610.734 180.541 608.973C180.78 607.205 173.306 543.272 172.978 539.961C172.472 534.882 174.447 511.398 174.447 511.398C177.261 515.18 184.442 532.254 191.929 540.378C196.329 545.156 218.137 548.085 222.243 548.222C231.186 548.522 247.507 550.304 247.985 549.43C248.368 548.904 249.407 534.95 248.382 534.616C247.487 534.315 217.187 532.575 209.419 528.458C206.577 526.949 198.092 508.456 198.092 508.456C198.092 508.456 184.339 479.497 177.849 476.582H177.842Z" fill="#EBB35C"/>
<path d="M99.9853 519.563H132.594C141.093 519.563 147.993 526.458 147.993 534.95V591.933C147.993 600.419 141.093 607.314 132.601 607.314H99.9785C91.4796 607.314 84.5862 600.419 84.5862 591.933V534.95C84.5862 526.458 91.4864 519.563 99.9853 519.563Z" fill="#DCD0C8"/>
<path d="M136.755 627.692C127.409 627.692 119.825 624.558 114.216 618.366C101.543 604.385 103.818 579.802 103.921 578.764C104.112 576.826 105.84 575.406 107.781 575.604C109.721 575.802 111.135 577.522 110.944 579.461C110.916 579.741 108.894 602.023 119.456 613.649C123.726 618.353 129.383 620.64 136.755 620.64C138.702 620.64 140.28 622.217 140.28 624.162C140.28 626.108 138.702 627.692 136.755 627.692Z" fill="#DCD0C8"/>
<path d="M200.415 439.465H234.841C235.476 439.465 235.989 439.977 235.989 440.612V442.318C235.989 442.953 235.476 443.465 234.841 443.465H200.408C199.773 443.465 199.26 442.953 199.26 442.318V440.612C199.26 439.977 199.773 439.465 200.408 439.465H200.415Z" fill="#DEDFE6"/>
<path d="M200.408 448.039H234.841C235.476 448.039 235.989 448.551 235.989 449.186V450.893C235.989 451.528 235.476 452.04 234.841 452.04H200.408C199.773 452.04 199.26 451.528 199.26 450.893V449.179C199.26 448.551 199.773 448.039 200.401 448.039H200.408Z" fill="#DEDFE6"/>
<path d="M203.12 457.876H232.135C234.267 457.876 235.995 459.604 235.995 461.734V499.24C235.995 501.363 234.267 503.09 232.142 503.09H203.127C200.995 503.09 199.267 501.363 199.267 499.233V461.727C199.267 459.604 200.995 457.876 203.12 457.876Z" fill="#DEDFE6"/>
<path d="M249.509 439.465H302.702C306.071 439.465 308.803 442.195 308.803 445.561V496.987C308.803 500.352 306.071 503.083 302.702 503.083H249.509C246.141 503.083 243.408 500.352 243.408 496.987V445.561C243.408 442.195 246.141 439.465 249.509 439.465Z" fill="#DEDFE6"/>
<path d="M359.093 131.9C348.066 101.09 318.6 82.1667 287.542 83.102C280.027 83.3341 272.41 84.7199 264.942 87.3892C242.322 95.472 226.103 113.481 219.435 134.753C214.816 149.492 214.789 165.801 220.398 181.469C220.958 183.025 221.56 184.561 222.209 186.056C225.16 192.842 229.027 198.979 233.625 204.379C252.898 227.023 284.878 236.588 314.549 225.986C352.849 212.298 372.791 170.17 359.1 131.9H359.093ZM308.339 208.639C286.094 216.592 262.121 209.417 247.664 192.446C244.221 188.398 241.318 183.796 239.111 178.704C238.619 177.584 238.168 176.43 237.751 175.263C233.55 163.514 233.57 151.287 237.034 140.235C242.028 124.288 254.189 110.784 271.153 104.729C276.755 102.722 282.459 101.684 288.096 101.514C311.379 100.811 333.473 115.003 341.74 138.098C352.008 166.791 337.053 198.372 308.339 208.639Z" fill="#72ACFB"/>
<path d="M237.027 140.235L219.428 134.746C226.096 113.474 242.315 95.4651 264.936 87.3823C272.403 84.713 280.02 83.3272 287.536 83.0951L288.089 101.507C282.453 101.684 276.748 102.722 271.146 104.722C254.182 110.778 242.028 124.281 237.027 140.228V140.235Z" fill="#385988"/>
<path d="M239.104 178.704L222.202 186.056C221.553 184.561 220.952 183.025 220.391 181.468C214.782 165.801 214.81 149.492 219.428 134.753L237.027 140.242C233.563 151.294 233.543 163.521 237.744 175.27C238.161 176.437 238.619 177.591 239.104 178.71V178.704Z" fill="#4772B0"/>
<path d="M233.618 204.372C229.02 198.972 225.153 192.835 222.202 186.049L239.104 178.697C241.318 183.783 244.221 188.391 247.658 192.439L233.618 204.372Z" fill="#5886C7"/>
<path d="M401.253 136.398H388.211V229.222H401.253V136.398Z" fill="#DEDEDE"/>
<path d="M433.636 155.254H420.594V229.215H433.636V155.254Z" fill="#DEDEDE"/>
<path d="M466.02 141.382H452.978V229.222H466.02V141.382Z" fill="#DEDEDE"/>
<path d="M498.403 168.778H485.361V229.215H498.403V168.778Z" fill="#DEDEDE"/>
<path d="M530.786 144.229H517.744V229.221H530.786V144.229Z" fill="#DEDEDE"/>
<path d="M563.17 131.415H550.128V229.222H563.17V131.415Z" fill="#DEDEDE"/>
<path d="M595.56 126.069H582.518V229.215H595.56V126.069Z" fill="#DEDEDE"/>
<path d="M401.253 170.983H388.211V229.221H401.253V170.983Z" fill="#DF655A"/>
<path d="M433.636 182.82H420.594V229.222H433.636V182.82Z" fill="#DF655A"/>
<path d="M466.02 174.109H452.978V229.222H466.02V174.109Z" fill="#DF655A"/>
<path d="M498.403 191.299H485.361V229.215H498.403V191.299Z" fill="#DF655A"/>
<path d="M530.786 175.898H517.744V229.222H530.786V175.898Z" fill="#DF655A"/>
<path d="M563.17 167.856H550.128V229.215H563.17V167.856Z" fill="#DF655A"/>
<path d="M595.56 164.511H582.518V229.222H595.56V164.511Z" fill="#DF655A"/>
<path d="M631.284 136.398H618.242V229.222H631.284V136.398Z" fill="#DEDEDE"/>
<path d="M663.668 155.254H650.625V229.215H663.668V155.254Z" fill="#DEDEDE"/>
<path d="M696.058 141.382H683.016V229.222H696.058V141.382Z" fill="#DEDEDE"/>
<path d="M728.441 168.778H715.399V229.215H728.441V168.778Z" fill="#DEDEDE"/>
<path d="M631.284 170.983H618.242V229.221H631.284V170.983Z" fill="#DF655A"/>
<path d="M663.668 182.82H650.625V229.222H663.668V182.82Z" fill="#DF655A"/>
<path d="M696.058 174.109H683.016V229.222H696.058V174.109Z" fill="#DF655A"/>
<path d="M728.441 191.299H715.399V229.215H728.441V191.299Z" fill="#DF655A"/>
<path d="M723.474 90.5499L385.943 90.5499C383.203 90.5499 380.976 88.3244 380.976 85.5869V82.2486C380.976 79.5111 383.203 77.2856 385.943 77.2856L723.474 77.2856C726.214 77.2856 728.434 79.5043 728.434 82.2418V85.5801C728.434 88.3176 726.207 90.5431 723.468 90.5431L723.474 90.5499Z" fill="#72ACFB"/>
<path d="M723.474 113.679L385.943 113.679C383.203 113.679 380.976 111.453 380.976 108.716V105.378C380.976 102.64 383.203 100.415 385.943 100.415L723.474 100.415C726.214 100.415 728.434 102.633 728.434 105.371V108.709C728.434 111.447 726.207 113.672 723.468 113.672L723.474 113.679Z" fill="#BFD4FC"/>
<g style="mix-blend-mode:hard-light">
<path d="M468.78 268.469H595.403C604.12 268.469 611.205 275.541 611.205 284.259V520.99C611.205 529.701 604.127 536.78 595.403 536.78H468.78C460.062 536.78 452.978 529.707 452.978 520.99V284.252C452.978 275.541 460.056 268.469 468.773 268.469H468.78Z" fill="#F4F4F4"/>
</g>
<path d="M464.688 428.508H463.997V517.201H464.688V428.508Z" fill="#72ACFB"/>
<path d="M498.342 428.508H497.652V517.201H498.342V428.508Z" fill="#72ACFB"/>
<path d="M531.989 428.508H531.299V517.201H531.989V428.508Z" fill="#72ACFB"/>
<path d="M565.643 428.508H564.953V517.201H565.643V428.508Z" fill="#72ACFB"/>
<path d="M599.297 428.508H598.607V517.201H599.297V428.508Z" fill="#72ACFB"/>
<path d="M464.346 481.244C464.346 481.244 478.058 492.782 491.312 479.114C504.566 465.447 519.849 460.88 533.362 472.39C546.876 483.9 552.136 468.103 565.643 455.159C579.157 442.216 578.938 434.85 598.949 434.85V517.201H464.346V481.238V481.244Z" fill="url(#paint13_linear_162_49)"/>
<path d="M506.356 421.121H497.993V424.35H506.356V421.121Z" fill="#72ACFB"/>
<path d="M475.38 421.121H463.997V424.35H475.38V421.121Z" fill="#72ACFB"/>
<path d="M541.95 421.121H531.647V424.35H541.95V421.121Z" fill="#72ACFB"/>
<path d="M575.256 421.121H564.953V424.35H575.256V421.121Z" fill="#72ACFB"/>
<path d="M598.949 421.121H588.646V424.35H598.949V421.121Z" fill="#72ACFB"/>
<path d="M593.066 362.8H548.071V368.487H593.066V362.8Z" fill="url(#paint14_linear_162_49)"/>
<path d="M589.377 386.639H548.071V392.326H589.377V386.639Z" fill="url(#paint15_linear_162_49)"/>
<path d="M583.809 374.72H548.071V380.406H583.809V374.72Z" fill="url(#paint16_linear_162_49)"/>
<path d="M507.722 354.683C507.722 359.025 504.203 362.548 499.852 362.548C495.5 362.548 491.981 359.032 491.981 354.683C491.981 350.335 495.506 346.826 499.852 346.826C504.197 346.826 507.722 350.342 507.722 354.683Z" fill="#72ACFB"/>
<path d="M514.048 380.311V395.261C509.703 397.234 504.873 398.333 499.79 398.333C494.707 398.333 489.87 397.234 485.525 395.261V380.311C485.525 372.44 491.906 366.063 499.79 366.063C507.674 366.063 514.048 372.447 514.048 380.311Z" fill="#72ACFB"/>
<path d="M499.79 399.276C494.68 399.276 489.747 398.211 485.142 396.115C472.51 390.38 464.346 377.717 464.346 363.852C464.346 344.327 480.251 328.435 499.79 328.435C519.329 328.435 535.234 344.32 535.234 363.852C535.234 377.717 527.07 390.374 514.438 396.115C509.833 398.211 504.9 399.276 499.79 399.276ZM499.79 330.312C481.275 330.312 466.211 345.358 466.211 363.859C466.211 376.986 473.945 388.981 485.914 394.422C490.273 396.408 494.946 397.412 499.79 397.412C504.634 397.412 509.3 396.408 513.659 394.422C525.628 388.988 533.355 376.993 533.355 363.859C533.355 345.358 518.291 330.312 499.783 330.312H499.79Z" fill="url(#paint17_linear_162_49)"/>
<path d="M570.104 348.894C558.292 348.894 548.693 339.296 548.693 327.499C548.693 315.703 558.299 306.104 570.104 306.104C581.91 306.104 591.516 315.703 591.516 327.499C591.516 339.296 581.91 348.894 570.104 348.894ZM570.104 310.385C560.663 310.385 552.977 318.065 552.977 327.499C552.977 336.934 560.656 344.614 570.104 344.614C579.553 344.614 587.225 336.934 587.225 327.499C587.225 318.065 579.546 310.385 570.104 310.385Z" fill="#72ACFB"/>
<path d="M530.452 284.853H498.185V289.993H530.452V284.853Z" fill="#72ACFB"/>
<path d="M530.445 298.097H502.94V303.244H530.445V298.097Z" fill="#72ACFB"/>
<path d="M530.452 311.347H486.222V316.488H530.452V311.347Z" fill="#72ACFB"/>
<g style="mix-blend-mode:hard-light">
<path d="M625.204 267.909H724.451C726.651 267.909 728.434 269.69 728.434 271.889V340.306C728.434 342.504 726.651 344.286 724.451 344.286H625.197C622.997 344.286 621.214 342.504 621.214 340.306V271.882C621.214 269.684 622.997 267.902 625.197 267.902L625.204 267.909Z" fill="#F4F4F4"/>
</g>
<path d="M632.104 288.054H665.068C666.298 288.054 667.295 289.051 667.295 290.28V291.277C667.295 292.505 666.298 293.502 665.068 293.502H632.104C630.874 293.502 629.877 292.505 629.877 291.277V290.28C629.877 289.051 630.874 288.054 632.104 288.054Z" fill="url(#paint18_linear_162_49)"/>
<path d="M631.851 275.732H657.232C658.318 275.732 659.206 276.613 659.206 277.705V279.207C659.206 280.292 658.325 281.18 657.232 281.18H631.851C630.765 281.18 629.884 280.299 629.884 279.214V277.705C629.884 276.62 630.765 275.739 631.851 275.739V275.732Z" fill="url(#paint19_linear_162_49)"/>
<path d="M629.877 333.746L651.561 312.078L658.045 318.549L681.841 294.772L692.403 305.326L720.031 277.719V333.746H629.877Z" fill="#72ACFB"/>
<path d="M719.778 333.746V290.778L691.282 319.253L681.075 309.054L664.057 326.059L651.165 320.932L629.877 333.746H719.778Z" fill="#558AD8"/>
<path d="M655.059 707.728C655.059 707.728 647.066 718.945 648.166 720.726C649.259 722.501 657.662 722.761 662.779 720.726C667.897 718.692 668.02 705.551 670.336 699.898C671.306 697.536 669.229 690.552 666.312 690.047C663.394 689.542 660.224 691.023 660.224 691.023C660.224 691.023 663.244 698.983 655.059 707.728Z" fill="#3A3D5D"/>
<path d="M660.17 690.935C660.17 690.935 658.489 695.713 657.874 700.274C657.362 704.056 652.183 712.091 652.422 713.108C652.668 714.125 659.24 715.047 661.919 712.425C664.597 709.811 666.325 702.192 666.913 697.632C667.466 693.385 668.156 691.29 668.156 691.29C668.156 691.29 662.718 688.142 660.163 690.935H660.17Z" fill="#DBA585"/>
<path d="M724.615 707.919C724.615 707.919 716.909 718.951 718.009 720.726C719.109 722.501 727.512 722.761 732.629 720.726C737.746 718.692 737.862 705.551 740.178 699.898C741.149 697.536 739.072 690.552 736.161 690.047C733.244 689.542 729.828 691.139 729.828 691.139C729.828 691.139 732.814 699.174 724.622 707.919H724.615Z" fill="#3A3D5D"/>
<path d="M729.821 691.139C729.821 691.139 729.213 696.341 728.236 700.028C727.259 703.707 722.026 712.091 722.265 713.108C722.511 714.125 729.083 715.047 731.761 712.425C734.44 709.81 736.51 702.219 736.756 697.632C737.002 693.044 736.148 690.047 736.148 690.047C736.148 690.047 732.369 688.34 729.814 691.139H729.821Z" fill="#DBA585"/>
<path d="M691.33 508.504C691.33 508.504 684.471 541.77 682.9 550.147C681.321 558.523 676.915 599.081 676.443 605.983C675.972 612.878 669.29 638.867 669.605 641.331C669.919 643.796 659.691 693.276 659.691 693.276C659.691 693.276 663.183 696.205 666.865 693.542C668.757 692.17 689.294 647.216 689.294 634.901C689.294 617.875 701.366 595.654 702.924 591.844C717.394 556.461 714.545 545.641 716.437 543.347C718.33 541.047 718.487 544.767 719.594 549.86C720.694 554.953 723.058 598.965 724.472 604.542C725.886 610.126 724.793 629.009 725.579 638.532C726.364 648.056 729.821 691.146 729.821 691.146C729.821 691.146 732.499 695.515 736.257 691.255C737.063 690.341 742.74 643.263 742.898 631.931C743.055 620.605 743.226 604.972 743.526 600.077C746.443 553.116 753.617 546.412 742.317 513.18C721.165 450.954 691.323 508.51 691.323 508.51L691.33 508.504Z" fill="#DBA585"/>
<path d="M737.384 499.212C737.384 499.212 756.923 527.721 748.506 588.37C748.506 588.37 702.172 594.944 677.345 580.771C677.345 580.771 687.607 518.245 691.33 508.51C695.053 498.782 737.384 499.219 737.384 499.219V499.212Z" fill="#42466C"/>
<path d="M670.547 698.908V710.657H669.085V701.584L670.547 698.908Z" fill="#3A3D5D"/>
<path d="M740.39 698.908V710.657H738.928V701.584L740.39 698.908Z" fill="#3A3D5D"/>
<path d="M714.217 372.788C714.217 372.788 701.134 385.957 705.588 402.914C710.043 419.872 717.203 419.967 725.093 412.677C732.984 405.379 737.63 397.705 738.675 389.179C739.714 380.652 726.159 361.039 714.217 372.795V372.788Z" fill="#DBA585"/>
<path d="M711.662 429.347C711.662 429.347 713.602 424.91 714.962 419.92C715.201 419.039 715.419 418.138 715.611 417.244C716.28 414.103 716.554 411.004 715.829 408.881C713.746 402.723 728.913 406.983 728.913 406.983C728.913 406.983 725.975 423.278 728.913 428.767C731.85 434.263 711.655 429.334 711.655 429.334L711.662 429.347Z" fill="#DBA585"/>
<path d="M750.105 437.109C747.714 432.344 745.931 430.815 741.319 429.354C738.737 428.542 727.198 425.538 727.198 425.538L713.343 425.033C713.343 425.033 703.812 426.617 696.42 429.177C689.021 431.737 679.333 445.732 679.333 445.732C679.333 445.732 692.697 477.094 695.258 486.091C697.814 495.096 696.112 509.016 696.112 509.016C712.133 517.733 737.828 508.162 737.828 508.162C735.881 501.131 735.799 492.918 736.824 487.095C736.947 486.405 737.077 485.757 737.227 485.136C737.364 484.576 737.555 483.777 737.774 482.876C737.78 482.835 737.794 482.801 737.801 482.76C747.994 483.804 757.552 484.221 757.798 482.186C758.918 472.984 753.385 443.65 750.098 437.103L750.105 437.109ZM743.041 472.861C742.631 472.8 741.757 472.8 740.834 472.711C741.968 469.557 743.232 466.765 743.232 466.765C743.957 468.779 746.703 473.407 743.048 472.861H743.041Z" fill="#E6D8D1"/>
<path d="M718.487 382.263C718.487 382.263 724.745 393.63 728.633 397.705C732.52 401.781 732.062 405.017 732.062 405.017C732.062 405.017 747.215 386.339 736.407 375.068C725.599 363.797 711.662 368.337 707.583 378.195C703.505 388.046 705.001 400.081 705.001 400.081C705.001 400.081 705.124 388.517 718.487 382.27V382.263Z" fill="#CD7250"/>
<path d="M722.613 370.358C722.613 370.358 721.097 362.036 734.159 358.725C747.222 355.414 753.091 370.453 751.478 379.628C749.866 388.804 738.703 412.062 744.756 415.093C750.816 418.118 753.179 411.591 753.179 411.591C753.179 411.591 751.287 423.033 742.863 420.384C734.44 417.735 735.574 399.139 736.844 391.725C738.115 384.318 722.607 370.351 722.607 370.351L722.613 370.358Z" fill="#CD7250"/>
<path d="M726.822 411.025C726.774 411.147 723.468 418.739 714.962 419.92C715.201 419.039 715.419 418.138 715.611 417.244C715.611 417.244 720.277 418.186 726.822 411.025Z" fill="#997761"/>
<path d="M743.048 466.874C743.048 466.874 742.426 468.192 740.718 473.366C738.976 458.832 739.891 451.261 739.891 451.261C740.083 459.03 743.055 466.874 743.055 466.874H743.048Z" fill="#C8BCB6"/>
<path d="M724.649 368.61C724.649 368.61 733.92 370.392 738.546 377.935C738.546 377.935 737.61 371.109 732.991 369.136C728.38 367.169 724.649 368.617 724.649 368.617V368.61Z" fill="#E6D8D1"/>
<path d="M737.78 482.883C737.562 483.784 737.371 484.583 737.234 485.142C737.084 485.757 736.947 486.412 736.831 487.102C731.092 483.982 726.965 481.545 726.965 481.545C728.509 481.893 737.787 482.89 737.787 482.89L737.78 482.883Z" fill="#C8BCB6"/>
<path d="M727.977 425.743L711.662 439.035L713.343 425.033C713.343 425.033 722.853 422.985 727.977 425.743Z" fill="#DBA585"/>
<path d="M716.376 436.775L711.662 439.035L727.683 423.162L716.376 436.775Z" fill="#CFC3BC"/>
<path d="M738.737 481.736C736.489 491.034 744.804 511.958 744.804 511.958L728.339 517.105C725.968 517.842 723.474 516.395 722.955 513.965C720.748 503.725 715.583 478.52 714.962 464.512C714.176 446.633 727.198 425.538 727.198 425.538C750.351 429.511 744.004 464.512 744.004 464.512C744.004 464.512 743.164 466.717 742.043 470.165C741.757 471.032 741.463 471.974 741.148 472.984C740.356 475.571 739.502 478.575 738.737 481.743V481.736Z" fill="#4C507D"/>
<path d="M711.703 425.798L711.99 425.033C711.99 425.033 700.136 426.835 694.104 429.839C688.078 432.85 676.539 448.387 676.539 448.387L691.631 468.294C691.644 483.593 689.164 510.79 689.164 510.79L696.065 514.764C697.916 515.829 700.239 514.525 700.28 512.381C700.471 502.039 700.936 477.476 701.182 465.577C701.496 450.278 712.42 425.538 712.42 425.538C712.174 425.62 711.942 425.709 711.703 425.798Z" fill="#4C507D"/>
<path d="M690.203 497.526C690.203 497.526 701.578 497.97 703.348 497.526C705.117 497.082 716.923 491.969 717.633 486.911C718.344 481.859 690.203 491.443 690.203 491.443V497.526Z" fill="#DBA585"/>
<path d="M725.504 481.736L679.333 476.336L700.191 493.294L725.504 481.736Z" fill="#6D76BA"/>
<path d="M700.191 493.294L725.503 484.671V481.736L699.337 490.126L700.191 493.294Z" fill="#363957"/>
<path d="M712.092 473.264C712.092 473.264 708.273 473.264 706.135 472.827C704.482 472.492 700.362 472.957 699.317 473.885C698.265 474.814 694.937 481.279 694.302 481.674C693.673 482.07 694.623 482.985 695.73 482.528C695.73 482.528 696.748 485.354 699.255 484.296C701.762 483.238 703.464 480.924 704.782 480.521C706.094 480.111 713.746 478.056 713.746 478.056C713.746 478.056 714.06 472.581 712.086 473.271L712.092 473.264Z" fill="#DBA585"/>
<path d="M714.21 422.452L705.424 436.359L701.182 439.035L711.068 425.183L714.21 422.452Z" fill="#F3E4DC"/>
<path d="M705.424 436.359L711.662 439.035L713.343 425.033L714.21 422.452L705.424 436.359Z" fill="#CFC3BC"/>
<path d="M691.59 491.02C691.59 491.02 691.118 496.898 691.59 498.127C691.59 498.127 663.114 495.28 660.463 491.307C657.806 487.327 657.908 482.494 657.908 482.494L691.597 491.02H691.59Z" fill="#4C507D"/>
<path d="M700.191 493.294L686.725 443.274L635.527 437.874L649.56 483.914L700.191 493.294Z" fill="#2A2B41"/>
<path d="M727.683 423.162L716.376 436.775L722.559 442.291L729.24 425.989L727.683 423.162Z" fill="#F3E4DC"/>
<path d="M742.419 469.011C742.419 469.011 742.044 470.158 742.044 470.165C741.757 471.025 741.463 471.974 741.149 472.977C738.962 473.667 720.052 472.274 720.052 472.274C720.052 472.274 735.881 468.567 742.419 469.004V469.011Z" fill="#414469"/>
<path d="M741.326 472.608C738.279 472.383 733.292 472.056 729.206 472.035C722.853 472.008 711.983 472.718 711.983 472.718L713.274 479.504C713.274 479.504 732.527 482.63 743.041 483.367C743.041 483.367 756.917 484.958 757.948 482.89C758.98 480.821 757.607 467.543 755.352 455.576C753.098 443.609 750.775 436.72 748.015 433.02C745.255 429.327 730.682 426.439 730.682 426.439L743.048 466.881C743.048 466.881 744.817 470.485 744.728 472.042C744.701 472.52 744.373 472.738 743.929 472.82C743.622 472.793 742.932 472.738 741.989 472.663L741.326 472.608Z" fill="#4C507D"/>
</g>
<defs>
<linearGradient id="paint0_linear_162_49" x1="237.586" y1="255.377" x2="41.2066" y2="244.802" gradientUnits="userSpaceOnUse">
<stop stop-color="#4A612F"/>
<stop offset="1" stop-color="#769A42"/>
</linearGradient>
<linearGradient id="paint1_linear_162_49" x1="243.755" y1="343.805" x2="152.293" y2="240.165" gradientUnits="userSpaceOnUse">
<stop stop-color="#4A612F"/>
<stop offset="1" stop-color="#769A42"/>
</linearGradient>
<linearGradient id="paint2_linear_162_49" x1="221.98" y1="195.141" x2="129.023" y2="190.135" gradientUnits="userSpaceOnUse">
<stop stop-color="#4A612F"/>
<stop offset="1" stop-color="#769A42"/>
</linearGradient>
<linearGradient id="paint3_linear_162_49" x1="218.02" y1="268.619" x2="151.336" y2="150.426" gradientUnits="userSpaceOnUse">
<stop stop-color="#4A612F"/>
<stop offset="1" stop-color="#769A42"/>
</linearGradient>
<linearGradient id="paint4_linear_162_49" x1="455.034" y1="473.161" x2="151.478" y2="473.161" gradientUnits="userSpaceOnUse">
<stop stop-color="#EEBE63"/>
<stop offset="1" stop-color="#DC3B57"/>
</linearGradient>
<linearGradient id="paint5_linear_162_49" x1="455.034" y1="489.744" x2="151.478" y2="489.744" gradientUnits="userSpaceOnUse">
<stop stop-color="#EEBE63"/>
<stop offset="1" stop-color="#DC3B57"/>
</linearGradient>
<linearGradient id="paint6_linear_162_49" x1="455.027" y1="506.326" x2="151.478" y2="506.326" gradientUnits="userSpaceOnUse">
<stop stop-color="#EEBE63"/>
<stop offset="1" stop-color="#DC3B57"/>
</linearGradient>
<linearGradient id="paint7_linear_162_49" x1="1.14e-06" y1="534.186" x2="110.281" y2="534.186" gradientUnits="userSpaceOnUse">
<stop stop-color="#81D3E4"/>
<stop offset="1" stop-color="#6076FA"/>
</linearGradient>
<linearGradient id="paint8_linear_162_49" x1="80.8969" y1="595.674" x2="180.629" y2="595.674" gradientUnits="userSpaceOnUse">
<stop stop-color="#81D3E4"/>
<stop offset="1" stop-color="#6076FA"/>
</linearGradient>
<linearGradient id="paint9_linear_162_49" x1="89.4232" y1="610.167" x2="164.281" y2="610.167" gradientUnits="userSpaceOnUse">
<stop stop-color="#81D3E4"/>
<stop offset="1" stop-color="#6076FA"/>
</linearGradient>
<linearGradient id="paint10_linear_162_49" x1="62.396" y1="549.976" x2="149.572" y2="549.976" gradientUnits="userSpaceOnUse">
<stop stop-color="#81D3E4"/>
<stop offset="1" stop-color="#6076FA"/>
</linearGradient>
<linearGradient id="paint11_linear_162_49" x1="42.3921" y1="674.926" x2="122.831" y2="674.926" gradientUnits="userSpaceOnUse">
<stop stop-color="#E59148"/>
<stop offset="1" stop-color="#F1CC52"/>
</linearGradient>
<linearGradient id="paint12_linear_162_49" x1="42.3921" y1="674.926" x2="122.831" y2="674.926" gradientUnits="userSpaceOnUse">
<stop stop-color="#B37239"/>
<stop offset="1" stop-color="#F1CC52"/>
</linearGradient>
<linearGradient id="paint13_linear_162_49" x1="464.346" y1="476.029" x2="598.949" y2="476.029" gradientUnits="userSpaceOnUse">
<stop stop-color="#81D3E4"/>
<stop offset="1" stop-color="#6076FA"/>
</linearGradient>
<linearGradient id="paint14_linear_162_49" x1="548.071" y1="365.647" x2="593.066" y2="365.647" gradientUnits="userSpaceOnUse">
<stop stop-color="#81D3E4"/>
<stop offset="1" stop-color="#6076FA"/>
</linearGradient>
<linearGradient id="paint15_linear_162_49" x1="548.071" y1="389.486" x2="589.377" y2="389.486" gradientUnits="userSpaceOnUse">
<stop stop-color="#81D3E4"/>
<stop offset="1" stop-color="#6076FA"/>
</linearGradient>
<linearGradient id="paint16_linear_162_49" x1="548.071" y1="377.567" x2="583.809" y2="377.567" gradientUnits="userSpaceOnUse">
<stop stop-color="#81D3E4"/>
<stop offset="1" stop-color="#6076FA"/>
</linearGradient>
<linearGradient id="paint17_linear_162_49" x1="464.346" y1="363.859" x2="535.234" y2="363.859" gradientUnits="userSpaceOnUse">
<stop stop-color="#D3D8DE"/>
<stop offset="1" stop-color="white"/>
</linearGradient>
<linearGradient id="paint18_linear_162_49" x1="629.877" y1="290.778" x2="667.295" y2="290.778" gradientUnits="userSpaceOnUse">
<stop stop-color="#72ACFB"/>
<stop offset="1" stop-color="#5286D4"/>
</linearGradient>
<linearGradient id="paint19_linear_162_49" x1="-0.000661169" y1="278.456" x2="659.2" y2="278.456" gradientUnits="userSpaceOnUse">
<stop stop-color="#72ACFB"/>
<stop offset="1" stop-color="#5286D4"/>
</linearGradient>
<clipPath id="clip0_162_49">
<rect width="778" height="725" fill="white"/>
</clipPath>
</defs>
</svg>
