<svg width="96" height="104" viewBox="0 0 96 104" fill="none" xmlns="http://www.w3.org/2000/svg">
<path d="M94.2607 65.6024C92.5797 64.3112 90.2414 64.7265 89.0381 66.5303L70.5878 94.1823C70.084 94.8091 69.4525 94.9445 69.1142 94.9687C68.7662 94.9934 68.0995 94.9462 67.5113 94.3549L55.587 81.8693C54.1076 80.3202 51.7376 80.3511 50.2938 81.9387C48.85 83.5262 48.8791 86.0688 50.3585 87.6181L62.3032 100.125C62.3143 100.136 62.3255 100.148 62.3368 100.16C64.1276 101.989 66.5179 103.006 68.9772 103.006C69.1885 103.006 69.4008 102.999 69.6126 102.983C72.2917 102.792 74.7926 101.394 76.4745 99.1483C76.518 99.0901 76.5598 99.031 76.6003 98.9704L95.1256 71.206C96.3288 69.4024 95.9418 66.8936 94.2607 65.6024Z" fill="white"/>
<path d="M46.9218 54.6009C47.2506 54.6145 47.5807 54.6214 47.9125 54.6214C48.245 54.6214 48.5757 54.6145 48.905 54.6009C58.5273 54.8489 67.7667 58.6973 75.0197 65.5007C76.5763 66.9607 78.9409 66.7903 80.3015 65.1203C81.6622 63.4503 81.5034 60.9132 79.9469 59.4532C75.0056 54.8181 69.2849 51.3437 63.1475 49.1756C69.3472 44.1898 73.3657 36.2441 73.3657 27.3104C73.3659 12.2514 61.9477 0 47.9123 0C33.877 0 22.4588 12.2514 22.4588 27.3106C22.4588 36.2477 26.4804 44.1959 32.6841 49.1814C27.0003 51.1892 21.6671 54.3132 16.9994 58.4324C8.4403 65.9864 2.48932 76.5228 0.242845 88.101C-0.461229 91.729 0.382348 95.4553 2.55663 98.3242C4.72042 101.179 7.92879 102.816 11.3593 102.816H44.3567C46.4241 102.816 48.0998 101.018 48.0998 98.8001C48.0998 96.5821 46.4238 94.7839 44.3567 94.7839H11.3592C9.76126 94.7839 8.79712 93.8269 8.36473 93.2565C7.6181 92.2716 7.32915 90.9894 7.57197 89.7385C11.4567 69.7181 27.9153 55.0938 46.9218 54.6009ZM29.9454 27.3108C29.9454 16.6807 38.0054 8.03263 47.9127 8.03263C57.82 8.03263 65.88 16.6807 65.88 27.3108C65.88 37.6144 58.3075 46.0556 48.8204 46.5646C48.5182 46.5586 48.2157 46.5555 47.9129 46.5555C47.6112 46.5555 47.3097 46.5588 47.0086 46.5648C37.5196 46.0574 29.9454 37.6154 29.9454 27.3108Z" fill="white"/>
</svg>
