<svg width="94" height="101" viewBox="0 0 94 101" fill="none" xmlns="http://www.w3.org/2000/svg">
<path d="M67.4832 50.6079C65.6768 49.6865 63.8337 48.8929 61.9583 48.228C68.0321 43.3365 71.9684 35.5474 71.9684 26.7903C71.9684 12.0182 60.7675 0 46.9997 0C33.2319 0 22.0311 12.0182 22.0311 26.7903C22.0311 35.557 25.9761 43.3538 32.0613 48.2444C26.486 50.2139 21.2545 53.2784 16.6757 57.3194C8.27961 64.7295 2.4419 75.0652 0.238233 86.4229C-0.452444 89.9817 0.37501 93.637 2.50799 96.4512C4.63051 99.2515 7.77785 100.858 11.1427 100.858H56.363C58.3909 100.858 60.0348 99.0938 60.0348 96.9178C60.0348 94.7419 58.3909 92.9781 56.363 92.9781H11.1427C9.57522 92.9781 8.62953 92.0392 8.20543 91.4798C7.47308 90.5136 7.18961 89.2558 7.42773 88.0288C11.2382 68.3901 27.3826 54.0443 46.0263 53.5605C46.3493 53.5739 46.6737 53.5806 46.9997 53.5806C47.3289 53.5806 47.6566 53.5737 47.9827 53.5601C53.6961 53.7039 59.191 55.1029 64.3305 57.7244C66.1622 58.6581 68.3525 57.8227 69.2231 55.8574C70.0937 53.8922 69.3149 51.542 67.4832 50.6079ZM47.8953 45.6769C47.5973 45.6712 47.2988 45.6682 46.9997 45.6682C46.7034 45.6682 46.4071 45.6713 46.1111 45.6773C36.8039 45.1791 29.3748 36.8981 29.3748 26.7903C29.3748 16.3628 37.2812 7.8795 46.9997 7.8795C56.7182 7.8795 64.6246 16.3628 64.6246 26.7903C64.6246 36.8956 57.1992 45.1749 47.8953 45.6769Z" fill="white"/>
<path d="M90.3277 78.2042H80.23V67.3699C80.23 65.194 78.5862 63.4302 76.5582 63.4302C74.5302 63.4302 72.8863 65.194 72.8863 67.3699V78.2042H62.7887C60.7607 78.2042 59.1169 79.9681 59.1169 82.144C59.1169 84.3199 60.7607 86.0837 62.7887 86.0837H72.8863V96.918C72.8863 99.094 74.5302 100.858 76.5582 100.858C78.5862 100.858 80.23 99.094 80.23 96.918V86.0837H90.3277C92.3556 86.0837 93.9995 84.3199 93.9995 82.144C93.9995 79.9681 92.3556 78.2042 90.3277 78.2042Z" fill="white"/>
</svg>
