<svg width="101" height="96" viewBox="0 0 101 96" fill="none" xmlns="http://www.w3.org/2000/svg">
<path d="M70.6917 56.4166L58.5917 43.3268C56.3631 40.9158 53.3977 39.5882 50.2417 39.5882C47.0858 39.5882 44.1202 40.9158 41.8915 43.3268L29.7918 56.4166C28.2653 58.068 28.2756 60.7346 29.8146 62.3724C31.3538 64.0103 33.839 63.9996 35.3654 62.3479L46.1203 50.7134V91.6002C46.1203 93.9264 47.8777 95.8118 50.0455 95.8118C52.2134 95.8118 53.9706 93.9264 53.9706 91.6002V50.2886L65.1179 62.3479C65.8856 63.1782 66.8949 63.5938 67.905 63.5938C68.904 63.5938 69.9038 63.1869 70.6689 62.3724C72.208 60.7346 72.2184 58.068 70.6917 56.4166Z" fill="white"/>
<path d="M90.6707 31.5117V28.706C90.6707 12.8775 78.6687 0 63.9166 0C57.4926 0 51.2812 2.47973 46.4271 6.98268C43.2158 9.96146 40.7307 13.696 39.1473 17.8465C36.7133 16.5119 33.995 15.7931 31.2048 15.7931C21.5735 15.7931 13.738 24.2003 13.738 34.5344V38.3643C5.88338 40.254 0 47.7332 0 56.6447C0 61.6507 1.76611 66.3453 4.97315 69.8633C8.21943 73.4248 12.5867 75.3859 17.2706 75.3859H18.6444C20.8123 75.3859 22.5695 73.5004 22.5695 71.1744C22.5695 68.8484 20.8123 66.963 18.6444 66.963H17.2706C11.9881 66.963 7.85028 62.4308 7.85028 56.6447C7.85028 50.9552 12.2388 46.3266 17.6329 46.3266H17.6631C19.8309 46.3266 21.5883 44.441 21.5883 42.115V34.5344C21.5883 28.8448 25.9022 24.2161 31.2048 24.2161C33.9594 24.2161 36.5876 25.4905 38.4155 27.7126C39.4231 28.9372 40.9996 29.4262 42.4608 28.9674C43.9218 28.5085 45.0038 27.1847 45.237 25.5704C46.6487 15.7948 54.679 8.42302 63.9163 8.42302C74.3401 8.42302 82.8204 17.5219 82.8204 28.706V33.8857C82.8204 35.4439 83.6225 36.8751 84.9054 37.6058C89.672 40.3203 92.6333 45.5982 92.6333 51.3803C92.6333 58.7 87.9968 64.9473 81.3582 66.5725C79.2447 67.0901 77.9226 69.3479 78.4049 71.6154C78.8872 73.8833 80.9915 75.3026 83.1047 74.7846C87.9665 73.5941 92.3777 70.6345 95.5256 66.451C98.7227 62.2024 100.483 56.8502 100.483 51.3803C100.483 43.3505 96.778 35.953 90.6707 31.5117Z" fill="white"/>
</svg>
