<svg width="18" height="19" viewBox="0 0 18 19" fill="none" xmlns="http://www.w3.org/2000/svg">
<g opacity="0.7">
<path d="M16.0103 5.39653C16.7215 6.59812 17.1299 8.00063 17.1299 9.49834C17.1299 13.9625 13.4854 17.5866 9.0213 17.5629C7.29183 17.5537 5.6909 17.0001 4.38173 16.0648C4.36506 16.0529 4.33172 16.0288 4.33172 16.0288L2.35919 16.6416C2.17492 16.6991 2.00074 16.528 2.05471 16.3429L2.62988 14.3604C2.62988 14.3604 2.61014 14.3341 2.60049 14.3209C1.59536 12.9759 1 11.3062 1 9.49791C1 5.04996 4.68138 1.39869 9.13011 1.43335C10.957 1.44783 12.6395 2.06946 13.9851 3.10698" stroke="white" stroke-miterlimit="10" stroke-linecap="round"/>
<path d="M15.0486 4.55503C15.2401 4.55503 15.3955 4.39972 15.3955 4.20815C15.3955 4.01657 15.2401 3.86127 15.0486 3.86127C14.857 3.86127 14.7017 4.01657 14.7017 4.20815C14.7017 4.39972 14.857 4.55503 15.0486 4.55503Z" fill="white"/>
<path d="M8.32953 10.3975C8.32953 10.2064 8.3676 10.0331 8.44373 9.87822C8.51986 9.72334 8.65331 9.55053 8.84495 9.3589L9.5542 8.66676C9.84122 8.39112 10.0451 8.13212 10.1663 7.89017C10.2875 7.64823 10.3479 7.38922 10.3479 7.11359C10.3479 6.72508 10.2197 6.41707 9.96373 6.18913C9.70777 5.96118 9.35731 5.84699 8.91277 5.84699C8.4061 5.84699 8.01494 5.98087 7.73929 6.24819C7.46364 6.51551 7.32538 6.89396 7.32538 7.38353C7.32538 7.62592 7.12893 7.82236 6.88653 7.82236H6.21972C6.01933 7.82236 5.85657 7.6596 5.85657 7.45922C5.85657 6.48532 6.1099 5.75818 6.61657 5.27692C7.12324 4.79565 7.88324 4.55502 8.89614 4.55502C9.81935 4.55502 10.5553 4.78165 11.104 5.23448C11.6526 5.68774 11.927 6.28844 11.927 7.03703C11.927 7.4706 11.8425 7.86436 11.6736 8.21918C11.5047 8.57356 11.226 8.94239 10.8379 9.32521L10.0105 10.1696C9.9261 10.254 9.86966 10.3258 9.84166 10.3849C9.81366 10.4439 9.79966 11.0604 9.79966 11.1842C9.79966 11.4594 9.57651 11.6825 9.3013 11.6825H8.67518C8.48486 11.6825 8.3304 11.5281 8.3304 11.3378V10.3975H8.32953ZM8.48442 12.9557H9.71609C9.93442 12.9557 10.1116 13.1329 10.1116 13.3512V14.3085C10.1116 14.5732 9.89679 14.788 9.63208 14.788H8.49054C8.22933 14.788 8.01757 14.5762 8.01757 14.315V13.4229C8.01757 13.1648 8.22671 12.9561 8.48442 12.9561V12.9557Z" fill="white"/>
</g>
</svg>
