<svg width="18" height="18" viewBox="0 0 18 18" fill="none" xmlns="http://www.w3.org/2000/svg">
<g opacity="0.7">
<path d="M16.8082 10.9025C16.5084 10.688 16.0914 10.757 15.8769 11.0567L12.5869 15.6523C12.4971 15.7564 12.3845 15.7789 12.3241 15.783C12.2621 15.7871 12.1432 15.7792 12.0383 15.6809L9.91203 13.6059C9.64823 13.3485 9.22561 13.3536 8.96816 13.6175C8.71071 13.8813 8.7159 14.3039 8.9797 14.5613L11.1096 16.6399C11.1116 16.6418 11.1136 16.6437 11.1156 16.6456C11.4349 16.9496 11.8612 17.1187 12.2997 17.1187C12.3374 17.1187 12.3752 17.1175 12.413 17.1149C12.8907 17.0831 13.3367 16.8508 13.6366 16.4776C13.6444 16.4679 13.6518 16.4581 13.659 16.448L16.9624 11.8338C17.1769 11.5341 17.1079 11.1171 16.8082 10.9025Z" fill="white"/>
<path d="M8.3669 9.07417C8.42554 9.07645 8.48439 9.07758 8.54357 9.07758C8.60285 9.07758 8.66183 9.07645 8.72054 9.07417C10.4363 9.1154 12.0839 9.75497 13.3772 10.8856C13.6548 11.1283 14.0764 11.1 14.319 10.8224C14.5617 10.5449 14.5333 10.1232 14.2558 9.88059C13.3747 9.11028 12.3546 8.53286 11.2602 8.17254C12.3657 7.34396 13.0823 6.02345 13.0823 4.53874C13.0823 2.03608 11.0463 0 8.54353 0C6.0408 0 4.00476 2.03608 4.00476 4.53877C4.00476 6.02405 4.72187 7.34496 5.82809 8.17351C4.81458 8.50718 3.8636 9.02636 3.03127 9.71094C1.50504 10.9663 0.443886 12.7174 0.0433032 14.6416C-0.0822445 15.2445 0.0681787 15.8638 0.455889 16.3406C0.841726 16.8151 1.41383 17.0872 2.02555 17.0872H7.90951C8.27816 17.0872 8.57697 16.7883 8.57697 16.4197C8.57697 16.0511 8.2781 15.7522 7.90951 15.7522H2.02552C1.74059 15.7522 1.56867 15.5932 1.49157 15.4984C1.35843 15.3347 1.3069 15.1216 1.3502 14.9137C2.04291 11.5865 4.97775 9.15609 8.3669 9.07417ZM5.33974 4.53881C5.33974 2.77218 6.77697 1.33495 8.5436 1.33495C10.3102 1.33495 11.7475 2.77218 11.7475 4.53881C11.7475 6.25117 10.3972 7.65403 8.70546 7.73862C8.65156 7.73762 8.59763 7.73711 8.54363 7.73711C8.48984 7.73711 8.43607 7.73765 8.38238 7.73865C6.69034 7.65433 5.33974 6.25134 5.33974 4.53881Z" fill="white"/>
</g>
</svg>
