<svg width="16" height="16" viewBox="0 0 16 16" fill="none" xmlns="http://www.w3.org/2000/svg">
<g opacity="0.7">
<path d="M8.03142 8.62495C8.37661 8.62495 8.65643 8.34513 8.65643 7.99993V0.62477C8.65643 0.279575 8.37661 -0.000244141 8.03142 -0.000244141C7.68622 -0.000244141 7.4064 0.279575 7.4064 0.62477V7.99993C7.4064 8.34513 7.68622 8.62495 8.03142 8.62495Z" fill="white"/>
<path d="M11.4921 13.7779C10.4422 14.4139 9.23474 14.75 8.00018 14.75C4.27813 14.75 1.25003 11.7219 1.25003 7.99987C1.25003 5.15643 3.05463 2.60509 5.74053 1.65119C6.06582 1.53566 6.23586 1.17834 6.12032 0.85305C6.00479 0.527761 5.64744 0.357726 5.32218 0.47326C3.77896 1.02133 2.4569 2.01392 1.49891 3.34376C0.518324 4.70495 0 6.31502 0 7.99987C0 10.1368 0.832144 12.1458 2.34318 13.6569C3.85424 15.1679 5.86326 16 8.00018 16C9.46312 16 10.8945 15.6014 12.1397 14.8471C12.4349 14.6683 12.5293 14.2839 12.3505 13.9887C12.1716 13.6934 11.7873 13.5991 11.4921 13.7779Z" fill="white"/>
<path d="M14.5218 3.37629C13.5781 2.05642 12.2724 1.06396 10.7461 0.506226C10.4219 0.387723 10.063 0.55454 9.94455 0.878766C9.82608 1.20299 9.99287 1.56184 10.3171 1.68031C12.9688 2.64927 14.7504 5.18883 14.7504 7.99968C14.7504 9.33061 14.3546 10.6261 13.6058 11.7462C13.414 12.0331 13.4911 12.4213 13.778 12.6131C13.8848 12.6845 14.0054 12.7186 14.1248 12.7186C14.3265 12.7186 14.5245 12.6212 14.645 12.4409C15.5317 11.1146 16.0004 9.5788 16.0004 7.99968C16.0004 6.32792 15.4891 4.72916 14.5218 3.37629Z" fill="white"/>
</g>
</svg>
