<svg width="18" height="19" viewBox="0 0 18 19" fill="none" xmlns="http://www.w3.org/2000/svg">
<g opacity="0.7">
<path d="M16.0296 5.40994C16.7417 6.61314 17.1507 8.01753 17.1507 9.51724C17.1507 13.9773 13.5354 17.5926 9.07535 17.5926C4.6153 17.5926 1 13.9773 1 9.51724C1 5.0572 4.6153 1.44189 9.07535 1.44189C10.9296 1.44189 12.6384 2.06699 14.0015 3.11776" stroke="white" stroke-miterlimit="10" stroke-linecap="round"/>
<path d="M14.0847 15.8209C13.5286 13.3517 11.4969 11.5212 9.07598 11.5212C6.65509 11.5212 4.62736 13.3482 4.06903 15.8139" stroke="white" stroke-miterlimit="10" stroke-linecap="round"/>
<path d="M9.12003 10.235C10.5944 10.235 11.7896 9.03983 11.7896 7.56549C11.7896 6.09115 10.5944 4.89597 9.12003 4.89597C7.64569 4.89597 6.4505 6.09115 6.4505 7.56549C6.4505 9.03983 7.64569 10.235 9.12003 10.235Z" stroke="white" stroke-miterlimit="10" stroke-linecap="round"/>
</g>
</svg>
