<svg width="18" height="19" viewBox="0 0 18 19" fill="none" xmlns="http://www.w3.org/2000/svg">
<g opacity="0.7">
<g clip-path="url(#clip0_4_95)">
<path d="M8.99961 5.36209C6.75101 5.36209 4.92166 7.19147 4.92166 9.44004C4.92166 11.6886 6.75101 13.518 8.99961 13.518C9.4196 13.518 9.83401 13.4543 10.2313 13.3285C10.6015 13.2113 10.8066 12.8162 10.6894 12.446C10.5723 12.0758 10.1771 11.8707 9.80694 11.9878C9.54707 12.0701 9.27547 12.1118 8.99961 12.1118C7.52642 12.1118 6.32785 10.9133 6.32785 9.44004C6.32785 7.96681 7.52642 6.76828 8.99961 6.76828C10.4728 6.76828 11.6714 7.96681 11.6714 9.44004C11.6714 9.69607 11.6354 9.94904 11.5643 10.1919C11.4553 10.5646 11.6691 10.955 12.0418 11.064C12.4146 11.1731 12.805 10.9593 12.914 10.5866C13.0225 10.2155 13.0776 9.82969 13.0776 9.44004C13.0776 7.19147 11.2482 5.36209 8.99961 5.36209Z" fill="white"/>
<path d="M15.8899 6.97924H15.5359C15.4427 6.97924 15.3583 6.92057 15.3217 6.83205L15.3155 6.81686C15.2776 6.72567 15.2957 6.62418 15.3616 6.5583L15.612 6.30793C16.4344 5.48552 16.4344 4.14736 15.612 3.32495L15.1148 2.82779C14.7164 2.42938 14.1867 2.20998 13.6233 2.20998C13.0598 2.20998 12.5302 2.42938 12.1318 2.82779L11.8815 3.07812C11.8155 3.14404 11.7139 3.16211 11.6232 3.12439L11.6099 3.1189C11.5191 3.08139 11.4605 2.99699 11.4605 2.90386V2.54971C11.4605 1.38665 10.5143 0.44043 9.35119 0.44043H8.6481C7.48504 0.44043 6.53882 1.38665 6.53882 2.54971V2.90386C6.53882 2.99699 6.48018 3.08139 6.39015 3.11855L6.3764 3.12425C6.28531 3.16214 6.18372 3.14404 6.11787 3.07816L5.8675 2.82779C5.46913 2.42938 4.93942 2.20998 4.37599 2.20998C3.81257 2.20998 3.28289 2.42938 2.88448 2.82779L2.38732 3.32488C1.56491 4.14732 1.56491 5.48545 2.38736 6.3079L2.63769 6.55823C2.70357 6.62415 2.72164 6.72564 2.68273 6.81943L2.67847 6.8297C2.641 6.9205 2.55652 6.97917 2.4634 6.97917H2.10928C0.946225 6.97917 0 7.9254 0 9.08846V9.79155C0 10.9546 0.946225 11.9008 2.10928 11.9008H2.46336C2.55652 11.9008 2.64093 11.9595 2.67752 12.048L2.68378 12.0632C2.72164 12.1544 2.70354 12.2559 2.63766 12.3218L2.38732 12.5722C1.98891 12.9706 1.76951 13.5002 1.76951 14.0637C1.76951 14.6271 1.98891 15.1567 2.38729 15.5551L2.88445 16.0523C3.28285 16.4507 3.81257 16.6701 4.37596 16.6701C4.93942 16.6701 5.46909 16.4507 5.86747 16.0523L6.1178 15.802C6.18365 15.736 6.28528 15.718 6.37608 15.7557L6.38934 15.7612C6.48014 15.7987 6.53878 15.8831 6.53878 15.9762V16.3304C6.53878 17.4934 7.485 18.4397 8.64806 18.4397H9.35116C10.5142 18.4397 11.4604 17.4934 11.4604 16.3304V15.9762C11.4604 15.8831 11.5191 15.7987 11.6091 15.7615L11.6229 15.7558C11.714 15.718 11.8155 15.7361 11.8814 15.8019L12.1318 16.0523C12.5301 16.4507 13.0598 16.6701 13.6233 16.6701C14.1867 16.6701 14.7164 16.4507 15.1148 16.0523L15.6119 15.5551C16.0103 15.1568 16.2297 14.6271 16.2297 14.0637C16.2297 13.5002 16.0103 12.9706 15.6119 12.5722L15.3616 12.3218C15.2956 12.2559 15.2776 12.1544 15.3154 12.0633L15.3207 12.0504C15.3583 11.9596 15.4427 11.9009 15.5358 11.9009H15.8899C17.053 11.9009 17.9992 10.9547 17.9992 9.79162V9.08853C17.9992 7.92547 17.053 6.97924 15.8899 6.97924ZM16.593 9.79159C16.593 10.1793 16.2776 10.4947 15.8899 10.4947H15.5358C14.8712 10.4947 14.2767 10.8946 14.021 11.5136L14.0165 11.5246C13.7599 12.1433 13.8975 12.8464 14.3672 13.3161L14.6176 13.5665C14.7504 13.6993 14.8235 13.8759 14.8235 14.0637C14.8235 14.2515 14.7504 14.428 14.6175 14.5608L14.1204 15.058C13.9876 15.1908 13.811 15.2639 13.6232 15.2639C13.4354 15.2639 13.2589 15.1908 13.1261 15.058L12.8757 14.8076C12.4057 14.3377 11.7022 14.2002 11.0831 14.4574L11.0732 14.4615C10.4542 14.717 10.0543 15.3116 10.0543 15.9762V16.3304C10.0543 16.7181 9.73884 17.0335 9.35116 17.0335H8.64806C8.26038 17.0335 7.94497 16.7181 7.94497 16.3304V15.9762C7.94497 15.3116 7.54501 14.717 6.92531 14.4612L6.91581 14.4572C6.70875 14.3712 6.49231 14.3294 6.27821 14.3294C5.85245 14.3294 5.43622 14.4949 5.12352 14.8076L4.87315 15.058C4.74033 15.1908 4.56382 15.2639 4.37599 15.2639C4.18819 15.2639 4.01161 15.1908 3.87883 15.058L3.38167 14.5608C3.24886 14.428 3.17574 14.2515 3.17574 14.0637C3.17574 13.8759 3.24886 13.6993 3.38167 13.5665L3.63205 13.3161C4.10175 12.8464 4.23934 12.1433 3.98275 11.5246L3.97818 11.5136C3.72253 10.8946 3.12796 10.4947 2.4634 10.4947H2.10928C1.7216 10.4947 1.40619 10.1793 1.40619 9.79159V9.08849C1.40619 8.70081 1.7216 8.3854 2.10928 8.3854H2.4634C3.128 8.3854 3.72257 7.98548 3.97913 7.36426L3.9824 7.35628C4.23945 6.73742 4.10192 6.0339 3.63201 5.56395L3.38167 5.31361C3.1075 5.03944 3.1075 4.5934 3.38167 4.31926L3.8788 3.8221C4.01165 3.68932 4.18819 3.61617 4.37599 3.61617C4.56382 3.61617 4.74037 3.68929 4.87315 3.8221L5.12356 4.07251C5.59354 4.54239 6.29709 4.67991 6.91613 4.42272L6.92604 4.41861C7.54501 4.16303 7.94497 3.56846 7.94497 2.90386V2.54971C7.94497 2.16203 8.26038 1.84662 8.64806 1.84662H9.35116C9.73884 1.84662 10.0543 2.16203 10.0543 2.54971V2.90386C10.0543 3.56846 10.4542 4.16303 11.0739 4.41889L11.0834 4.42283C11.7022 4.67981 12.4057 4.54232 12.8757 4.07244L13.1261 3.82203C13.2589 3.68925 13.4354 3.61613 13.6232 3.61613C13.811 3.61613 13.9876 3.68929 14.1204 3.82207L14.6175 4.31923C14.8917 4.59336 14.8917 5.03941 14.6176 5.31354L14.3672 5.56395C13.8973 6.0339 13.7598 6.73738 14.0158 7.35368L14.021 7.36651C14.2767 7.98548 14.8713 8.3854 15.5358 8.3854H15.8899C16.2776 8.3854 16.593 8.70081 16.593 9.08849V9.79159Z" fill="white"/>
</g>
</g>
<defs>
<clipPath id="clip0_4_95">
<rect width="17.9992" height="17.9992" fill="white" transform="translate(0 0.44043)"/>
</clipPath>
</defs>
</svg>
