<svg width="17" height="17" viewBox="0 0 17 17" fill="none" xmlns="http://www.w3.org/2000/svg">
<g opacity="0.7">
<path d="M4.39091 5.18102L7.99856 1.52127C8.12384 1.39669 8.29005 1.32812 8.46679 1.32812C8.64417 1.32812 8.81091 1.39722 8.93725 1.52356L12.6134 5.18533C12.743 5.31443 12.9125 5.37894 13.082 5.37891C13.2524 5.37891 13.4228 5.31373 13.5525 5.18347C13.8113 4.92362 13.8105 4.50317 13.5507 4.24436L9.87547 0.583512C9.49921 0.207221 8.99891 0 8.46679 0C7.93468 0 7.43438 0.207221 7.05812 0.583512C7.05699 0.584641 7.05589 0.58577 7.05476 0.586898L3.44505 4.24864C3.1876 4.50981 3.19058 4.93027 3.45179 5.18776C3.71297 5.44521 4.13345 5.44222 4.39091 5.18102Z" fill="white"/>
<path d="M7.83594 3.98438V12.1191C7.83594 12.4859 8.13324 12.7832 8.5 12.7832C8.86676 12.7832 9.16406 12.4859 9.16406 12.1191V3.98438C9.16406 3.61761 8.86676 3.32031 8.5 3.32031C8.13324 3.32031 7.83594 3.61761 7.83594 3.98438Z" fill="white"/>
<path d="M16.3359 13.6797C15.9692 13.6797 15.6719 13.977 15.6719 14.3438C15.6719 15.0761 15.0761 15.6719 14.3438 15.6719H2.65625C1.92392 15.6719 1.32812 15.0761 1.32812 14.3438C1.32812 13.977 1.03082 13.6797 0.664062 13.6797C0.297301 13.6797 0 13.977 0 14.3438C0 15.8084 1.19159 17 2.65625 17H14.3438C15.8084 17 17 15.8084 17 14.3438C17 13.977 16.7027 13.6797 16.3359 13.6797Z" fill="white"/>
</g>
</svg>
