<svg width="68" height="60" viewBox="0 0 68 60" fill="none" xmlns="http://www.w3.org/2000/svg">
<g id="icon">
<g id="Vector">
<path d="M47.4989 35.3296L39.3687 27.1324C37.8713 25.6226 35.8788 24.7912 33.7582 24.7912C31.6377 24.7912 29.6451 25.6226 28.1476 27.1324L20.0176 35.3296C18.9919 36.3638 18.9988 38.0337 20.0329 39.0593C21.0671 40.085 22.737 40.0783 23.7626 39.044L30.989 31.7581V57.3626C30.989 58.8193 32.1698 60 33.6264 60C35.083 60 36.2637 58.8193 36.2637 57.3626V31.4921L43.7538 39.044C44.2696 39.5639 44.9478 39.8242 45.6265 39.8242C46.2977 39.8242 46.9695 39.5694 47.4836 39.0593C48.5177 38.0337 48.5247 36.3638 47.4989 35.3296Z" fill="#06B8FF"/>
<path d="M60.9231 19.7335V17.9765C60.9231 8.06427 52.8588 0 42.9466 0C38.6302 0 34.4567 1.55288 31.1951 4.37275C29.0374 6.23815 27.3676 8.57684 26.3037 11.176C24.6683 10.3402 22.8418 9.89011 20.967 9.89011C14.4956 9.89011 9.23077 15.1549 9.23077 21.6264V24.0248C3.95314 25.2082 0 29.8919 0 35.4725C0 38.6074 1.18668 41.5473 3.34154 43.7504C5.52277 45.9807 8.45723 47.2088 11.6044 47.2088H12.5275C13.9841 47.2088 15.1648 46.028 15.1648 44.5714C15.1648 43.1148 13.9841 41.9341 12.5275 41.9341H11.6044C8.05503 41.9341 5.27473 39.0959 5.27473 35.4725C5.27473 31.9096 8.22343 29.011 11.8478 29.011H11.8681C13.3247 29.011 14.5055 27.8302 14.5055 26.3736V21.6264C14.5055 18.0634 17.4041 15.1648 20.967 15.1648C22.8179 15.1648 24.5838 15.9629 25.812 17.3544C26.489 18.1213 27.5483 18.4275 28.5301 18.1402C29.5118 17.8528 30.2388 17.0238 30.3955 16.0129C31.344 9.89117 36.7397 5.27473 42.9464 5.27473C49.9503 5.27473 55.6484 10.9727 55.6484 17.9765V21.2202C55.6484 22.196 56.1873 23.0922 57.0493 23.5498C60.2521 25.2497 62.2418 28.5549 62.2418 32.1758C62.2418 36.7596 59.1265 40.6718 54.6659 41.6896C53.2458 42.0137 52.3575 43.4276 52.6815 44.8476C53.0056 46.2678 54.4195 47.1566 55.8394 46.8322C59.1061 46.0867 62.0701 44.2333 64.1852 41.6135C66.3334 38.9529 67.5165 35.6012 67.5165 32.1758C67.5165 27.1473 65.0267 22.5148 60.9231 19.7335Z" fill="#06B8FF"/>
</g>
</g>
</svg>
